<?xml version="1.0" encoding="UTF-8" standalone="no"?>
<!DOCTYPE svg PUBLIC "-//W3C//DTD SVG 1.1//EN"
 "http://www.w3.org/Graphics/SVG/1.1/DTD/svg11.dtd">
<!-- Generated by graphviz version 2.40.1 (20161225.0304)
 -->
<!-- Pages: 1 -->
<svg width="776pt" height="377pt"
 viewBox="0.00 0.00 776.00 377.14" xmlns="http://www.w3.org/2000/svg" xmlns:xlink="http://www.w3.org/1999/xlink">
<g id="graph0" class="graph" transform="scale(.8824 .8824) rotate(0) translate(36 391.4118)">
<polygon fill="#f2f2f2" stroke="transparent" points="-36,36 -36,-391.4118 843.4384,-391.4118 843.4384,36 -36,36"/>
<!-- 0 -->
<g id="node1" class="node">
<title>0</title>
<g id="a_node1"><a xlink:title="#0: Alaska">
<ellipse fill="#000000" stroke="#000000" stroke-width="0" cx="7" cy="-348.4118" rx="7" ry="7"/>
</a>
</g>
</g>
<!-- 1 -->
<g id="node2" class="node">
<title>1</title>
<g id="a_node2"><a xlink:title="#1: Northwest Territory">
<ellipse fill="#000000" stroke="#000000" stroke-width="0" cx="62.5407" cy="-348.4118" rx="7" ry="7"/>
</a>
</g>
</g>
<!-- 0&#45;&#45;1 -->
<g id="edge1" class="edge">
<title>0&#45;&#45;1</title>
<path fill="none" stroke="#000000" d="M14.261,-348.4118C24.9641,-348.4118 44.8508,-348.4118 55.4535,-348.4118"/>
</g>
<!-- 3 -->
<g id="node3" class="node">
<title>3</title>
<g id="a_node3"><a xlink:title="#3: Alberta">
<ellipse fill="#000000" stroke="#000000" stroke-width="0" cx="38.7375" cy="-317.3744" rx="7" ry="7"/>
</a>
</g>
</g>
<!-- 0&#45;&#45;3 -->
<g id="edge2" class="edge">
<title>0&#45;&#45;3</title>
<path fill="none" stroke="#000000" d="M12.2408,-343.2866C18.1565,-337.5015 27.719,-328.1499 33.5942,-322.4042"/>
</g>
<!-- 29 -->
<g id="node4" class="node">
<title>29</title>
<g id="a_node4"><a xlink:title="#29: Kamchatka">
<ellipse fill="#000000" stroke="#000000" stroke-width="0" cx="760.7665" cy="-332.8931" rx="7" ry="7"/>
</a>
</g>
</g>
<!-- 0&#45;&#45;29 -->
<g id="edge3" class="edge">
<title>0&#45;&#45;29</title>
<path fill="none" stroke="#000000" d="M14.1537,-346.9444C24.6973,-344.8638 45.0561,-341.1596 62.5798,-339.8119 139.9362,-333.8626 159.5698,-338.6356 237.1457,-339.812 261.7795,-340.1855 267.9189,-341.1192 292.5526,-341.4927 468.8531,-344.1661 513.2693,-352.0403 689.2742,-341.4927 712.9842,-340.0718 740.8806,-336.0231 753.6888,-334.0298"/>
</g>
<!-- 1&#45;&#45;3 -->
<g id="edge5" class="edge">
<title>1&#45;&#45;3</title>
<path fill="none" stroke="#000000" d="M58.1748,-342.7191C53.88,-337.1189 47.361,-328.6187 43.0757,-323.0311"/>
</g>
<!-- 2 -->
<g id="node5" class="node">
<title>2</title>
<g id="a_node5"><a xlink:title="#2: Greenland">
<ellipse fill="#000000" stroke="#000000" stroke-width="0" cx="237.0971" cy="-348.4118" rx="7" ry="7"/>
</a>
</g>
</g>
<!-- 1&#45;&#45;2 -->
<g id="edge4" class="edge">
<title>1&#45;&#45;2</title>
<path fill="none" stroke="#000000" d="M69.5997,-348.4118C97.6641,-348.4118 201.1939,-348.4118 229.7567,-348.4118"/>
</g>
<!-- 4 -->
<g id="node6" class="node">
<title>4</title>
<g id="a_node6"><a xlink:title="#4: Ontario">
<ellipse fill="#000000" stroke="#000000" stroke-width="0" cx="86.3438" cy="-317.3744" rx="7" ry="7"/>
</a>
</g>
</g>
<!-- 1&#45;&#45;4 -->
<g id="edge6" class="edge">
<title>1&#45;&#45;4</title>
<path fill="none" stroke="#000000" d="M66.9065,-342.7191C71.2014,-337.1189 77.7204,-328.6187 82.0056,-323.0311"/>
</g>
<!-- 3&#45;&#45;4 -->
<g id="edge10" class="edge">
<title>3&#45;&#45;4</title>
<path fill="none" stroke="#000000" d="M45.762,-317.3744C54.7628,-317.3744 70.2759,-317.3744 79.2905,-317.3744"/>
</g>
<!-- 6 -->
<g id="node9" class="node">
<title>6</title>
<g id="a_node9"><a xlink:title="#6: Western United States">
<ellipse fill="#000000" stroke="#000000" stroke-width="0" cx="38.7375" cy="-255.2995" rx="7" ry="7"/>
</a>
</g>
</g>
<!-- 3&#45;&#45;6 -->
<g id="edge11" class="edge">
<title>3&#45;&#45;6</title>
<path fill="none" stroke="#000000" d="M38.7375,-310.2536C38.7375,-298.2796 38.7375,-274.2553 38.7375,-262.3373"/>
</g>
<!-- 30 -->
<g id="node34" class="node">
<title>30</title>
<g id="a_node34"><a xlink:title="#30: Irkutsk">
<ellipse fill="#000000" stroke="#000000" stroke-width="0" cx="689.357" cy="-301.8557" rx="7" ry="7"/>
</a>
</g>
</g>
<!-- 29&#45;&#45;30 -->
<g id="edge65" class="edge">
<title>29&#45;&#45;30</title>
<path fill="none" stroke="#000000" d="M754.1764,-330.0288C740.6417,-324.1461 709.836,-310.7567 696.1394,-304.8036"/>
</g>
<!-- 33 -->
<g id="node35" class="node">
<title>33</title>
<g id="a_node35"><a xlink:title="#33: Mongolia">
<ellipse fill="#000000" stroke="#000000" stroke-width="0" cx="705.2258" cy="-263.0589" rx="7" ry="7"/>
</a>
</g>
</g>
<!-- 29&#45;&#45;33 -->
<g id="edge66" class="edge">
<title>29&#45;&#45;33</title>
<path fill="none" stroke="#000000" d="M756.4083,-327.4133C746.0769,-314.4232 720.1825,-281.8648 709.718,-268.7072"/>
</g>
<!-- 34 -->
<g id="node36" class="node">
<title>34</title>
<g id="a_node36"><a xlink:title="#34: Japan">
<ellipse fill="#000000" stroke="#000000" stroke-width="0" cx="768.7008" cy="-247.5402" rx="7" ry="7"/>
</a>
</g>
</g>
<!-- 29&#45;&#45;34 -->
<g id="edge67" class="edge">
<title>29&#45;&#45;34</title>
<path fill="none" stroke="#000000" d="M761.4158,-325.9083C762.8962,-309.9827 766.5099,-271.1087 768.0201,-254.8634"/>
</g>
<!-- 2&#45;&#45;4 -->
<g id="edge7" class="edge">
<title>2&#45;&#45;4</title>
<path fill="none" stroke="#000000" d="M230.2278,-346.9976C205.1138,-341.827 118.4334,-323.9811 93.2535,-318.797"/>
</g>
<!-- 5 -->
<g id="node7" class="node">
<title>5</title>
<g id="a_node7"><a xlink:title="#5: Quebec">
<ellipse fill="#000000" stroke="#000000" stroke-width="0" cx="165.6877" cy="-317.3744" rx="7" ry="7"/>
</a>
</g>
</g>
<!-- 2&#45;&#45;5 -->
<g id="edge8" class="edge">
<title>2&#45;&#45;5</title>
<path fill="none" stroke="#000000" d="M230.5071,-345.5475C216.9723,-339.6648 186.1667,-326.2754 172.4701,-320.3223"/>
</g>
<!-- 13 -->
<g id="node8" class="node">
<title>13</title>
<g id="a_node8"><a xlink:title="#13: Iceland">
<ellipse fill="#000000" stroke="#000000" stroke-width="0" cx="292.6378" cy="-332.8931" rx="7" ry="7"/>
</a>
</g>
</g>
<!-- 2&#45;&#45;13 -->
<g id="edge9" class="edge">
<title>2&#45;&#45;13</title>
<path fill="none" stroke="#000000" d="M243.9075,-346.5089C254.5672,-343.5305 275.0778,-337.7996 285.7717,-334.8116"/>
</g>
<!-- 4&#45;&#45;5 -->
<g id="edge12" class="edge">
<title>4&#45;&#45;5</title>
<path fill="none" stroke="#000000" d="M93.3851,-317.3744C108.404,-317.3744 143.4423,-317.3744 158.5482,-317.3744"/>
</g>
<!-- 4&#45;&#45;6 -->
<g id="edge13" class="edge">
<title>4&#45;&#45;6</title>
<path fill="none" stroke="#000000" d="M81.9505,-311.6458C72.9273,-299.8803 52.3902,-273.1016 43.2591,-261.1953"/>
</g>
<!-- 7 -->
<g id="node10" class="node">
<title>7</title>
<g id="a_node10"><a xlink:title="#7: Eastern United States">
<ellipse fill="#000000" stroke="#000000" stroke-width="0" cx="102.2126" cy="-255.2995" rx="7" ry="7"/>
</a>
</g>
</g>
<!-- 4&#45;&#45;7 -->
<g id="edge14" class="edge">
<title>4&#45;&#45;7</title>
<path fill="none" stroke="#000000" d="M88.1642,-310.2536C91.2252,-298.2796 97.3668,-274.2553 100.4135,-262.3373"/>
</g>
<!-- 5&#45;&#45;7 -->
<g id="edge15" class="edge">
<title>5&#45;&#45;7</title>
<path fill="none" stroke="#000000" d="M160.2758,-312.0819C148.1637,-300.237 119.0147,-271.731 107.2564,-260.2321"/>
</g>
<!-- 14 -->
<g id="node17" class="node">
<title>14</title>
<g id="a_node17"><a xlink:title="#14: Scandanavia">
<ellipse fill="#000000" stroke="#000000" stroke-width="0" cx="356.1129" cy="-325.1338" rx="7" ry="7"/>
</a>
</g>
</g>
<!-- 13&#45;&#45;14 -->
<g id="edge26" class="edge">
<title>13&#45;&#45;14</title>
<path fill="none" stroke="#000000" d="M299.9192,-332.003C312.1633,-330.5063 336.7295,-327.5032 348.9164,-326.0135"/>
</g>
<!-- 15 -->
<g id="node18" class="node">
<title>15</title>
<g id="a_node18"><a xlink:title="#15: Great Britain">
<ellipse fill="#000000" stroke="#000000" stroke-width="0" cx="308.5066" cy="-309.615" rx="7" ry="7"/>
</a>
</g>
</g>
<!-- 13&#45;&#45;15 -->
<g id="edge27" class="edge">
<title>13&#45;&#45;15</title>
<path fill="none" stroke="#000000" d="M296.6422,-327.0191C299.0661,-323.4634 302.1447,-318.9473 304.5585,-315.4066"/>
</g>
<!-- 6&#45;&#45;7 -->
<g id="edge16" class="edge">
<title>6&#45;&#45;7</title>
<path fill="none" stroke="#000000" d="M46.0189,-255.2995C58.2631,-255.2995 82.8292,-255.2995 95.0161,-255.2995"/>
</g>
<!-- 8 -->
<g id="node11" class="node">
<title>8</title>
<g id="a_node11"><a xlink:title="#8: Central America">
<ellipse fill="#000000" stroke="#000000" stroke-width="0" cx="54.6063" cy="-193.2246" rx="7" ry="7"/>
</a>
</g>
</g>
<!-- 6&#45;&#45;8 -->
<g id="edge17" class="edge">
<title>6&#45;&#45;8</title>
<path fill="none" stroke="#000000" d="M40.5579,-248.1787C43.6189,-236.2047 49.7605,-212.1804 52.8072,-200.2624"/>
</g>
<!-- 7&#45;&#45;8 -->
<g id="edge18" class="edge">
<title>7&#45;&#45;8</title>
<path fill="none" stroke="#000000" d="M97.8192,-249.5709C88.7961,-237.8054 68.259,-211.0267 59.1279,-199.1205"/>
</g>
<!-- 9 -->
<g id="node12" class="node">
<title>9</title>
<g id="a_node12"><a xlink:title="#9: Venezuela">
<ellipse fill="#000000" stroke="#000000" stroke-width="0" cx="102.2126" cy="-138.9091" rx="7" ry="7"/>
</a>
</g>
</g>
<!-- 8&#45;&#45;9 -->
<g id="edge19" class="edge">
<title>8&#45;&#45;9</title>
<path fill="none" stroke="#000000" d="M59.345,-187.8181C68.4702,-177.4069 88.383,-154.6877 97.493,-144.2938"/>
</g>
<!-- 10 -->
<g id="node13" class="node">
<title>10</title>
<g id="a_node13"><a xlink:title="#10: Peru">
<ellipse fill="#000000" stroke="#000000" stroke-width="0" cx="94.2782" cy="-84.5936" rx="7" ry="7"/>
</a>
</g>
</g>
<!-- 9&#45;&#45;10 -->
<g id="edge20" class="edge">
<title>9&#45;&#45;10</title>
<path fill="none" stroke="#000000" d="M101.1753,-131.8083C99.6463,-121.3413 96.8053,-101.8932 95.2907,-91.5244"/>
</g>
<!-- 11 -->
<g id="node14" class="node">
<title>11</title>
<g id="a_node14"><a xlink:title="#11: Brazil">
<ellipse fill="#000000" stroke="#000000" stroke-width="0" cx="165.6877" cy="-100.1123" rx="7" ry="7"/>
</a>
</g>
</g>
<!-- 9&#45;&#45;11 -->
<g id="edge21" class="edge">
<title>9&#45;&#45;11</title>
<path fill="none" stroke="#000000" d="M108.5309,-135.0473C120.6978,-127.6107 147.2482,-111.3828 159.3949,-103.9585"/>
</g>
<!-- 10&#45;&#45;11 -->
<g id="edge22" class="edge">
<title>10&#45;&#45;11</title>
<path fill="none" stroke="#000000" d="M101.1253,-86.0816C114.6698,-89.0251 144.7628,-95.5649 158.5446,-98.56"/>
</g>
<!-- 12 -->
<g id="node15" class="node">
<title>12</title>
<g id="a_node15"><a xlink:title="#12: Argentina">
<ellipse fill="#000000" stroke="#000000" stroke-width="0" cx="118.0814" cy="-7" rx="7" ry="7"/>
</a>
</g>
</g>
<!-- 10&#45;&#45;12 -->
<g id="edge23" class="edge">
<title>10&#45;&#45;12</title>
<path fill="none" stroke="#000000" d="M96.3906,-77.7077C100.8963,-63.0201 111.4078,-28.7546 115.9395,-13.982"/>
</g>
<!-- 11&#45;&#45;12 -->
<g id="edge24" class="edge">
<title>11&#45;&#45;12</title>
<path fill="none" stroke="#000000" d="M162.4155,-93.7123C153.7186,-76.7022 130.0995,-30.506 121.3764,-13.4448"/>
</g>
<!-- 20 -->
<g id="node16" class="node">
<title>20</title>
<g id="a_node16"><a xlink:title="#20: North Africa">
<ellipse fill="#000000" stroke="#000000" stroke-width="0" cx="276.769" cy="-193.2246" rx="7" ry="7"/>
</a>
</g>
</g>
<!-- 11&#45;&#45;20 -->
<g id="edge25" class="edge">
<title>11&#45;&#45;20</title>
<path fill="none" stroke="#000000" d="M171.3489,-104.8578C190.4482,-120.8675 252.3675,-172.7704 271.251,-188.5992"/>
</g>
<!-- 21 -->
<g id="node26" class="node">
<title>21</title>
<g id="a_node26"><a xlink:title="#21: Egypt">
<ellipse fill="#000000" stroke="#000000" stroke-width="0" cx="371.9816" cy="-193.2246" rx="7" ry="7"/>
</a>
</g>
</g>
<!-- 20&#45;&#45;21 -->
<g id="edge45" class="edge">
<title>20&#45;&#45;21</title>
<path fill="none" stroke="#000000" d="M283.9255,-193.2246C301.5705,-193.2246 347.0103,-193.2246 364.7422,-193.2246"/>
</g>
<!-- 22 -->
<g id="node27" class="node">
<title>22</title>
<g id="a_node27"><a xlink:title="#22: East Africa">
<ellipse fill="#000000" stroke="#000000" stroke-width="0" cx="387.8504" cy="-138.9091" rx="7" ry="7"/>
</a>
</g>
</g>
<!-- 20&#45;&#45;22 -->
<g id="edge46" class="edge">
<title>20&#45;&#45;22</title>
<path fill="none" stroke="#000000" d="M283.0595,-190.1488C302.5193,-180.6335 361.6135,-151.7382 381.3522,-142.0865"/>
</g>
<!-- 23 -->
<g id="node28" class="node">
<title>23</title>
<g id="a_node28"><a xlink:title="#23: Congo">
<ellipse fill="#000000" stroke="#000000" stroke-width="0" cx="324.3753" cy="-115.631" rx="7" ry="7"/>
</a>
</g>
</g>
<!-- 20&#45;&#45;23 -->
<g id="edge47" class="edge">
<title>20&#45;&#45;23</title>
<path fill="none" stroke="#000000" d="M280.5046,-187.136C289.3601,-172.7025 311.5553,-136.5265 320.5249,-121.9069"/>
</g>
<!-- 14&#45;&#45;15 -->
<g id="edge28" class="edge">
<title>14&#45;&#45;15</title>
<path fill="none" stroke="#000000" d="M349.0884,-322.8439C339.9842,-319.8761 324.217,-314.7363 315.2516,-311.8138"/>
</g>
<!-- 16 -->
<g id="node19" class="node">
<title>16</title>
<g id="a_node19"><a xlink:title="#16: Northern Europe">
<ellipse fill="#000000" stroke="#000000" stroke-width="0" cx="371.9816" cy="-294.0963" rx="7" ry="7"/>
</a>
</g>
</g>
<!-- 14&#45;&#45;16 -->
<g id="edge29" class="edge">
<title>14&#45;&#45;16</title>
<path fill="none" stroke="#000000" d="M359.3242,-318.8529C362.0773,-313.468 366.0234,-305.75 368.7751,-300.3679"/>
</g>
<!-- 17 -->
<g id="node20" class="node">
<title>17</title>
<g id="a_node20"><a xlink:title="#17: Ukraine">
<ellipse fill="#000000" stroke="#000000" stroke-width="0" cx="451.3255" cy="-301.8557" rx="7" ry="7"/>
</a>
</g>
</g>
<!-- 14&#45;&#45;17 -->
<g id="edge30" class="edge">
<title>14&#45;&#45;17</title>
<path fill="none" stroke="#000000" d="M362.9603,-323.4597C380.4425,-319.1855 426.5901,-307.9031 444.2832,-303.5774"/>
</g>
<!-- 15&#45;&#45;16 -->
<g id="edge31" class="edge">
<title>15&#45;&#45;16</title>
<path fill="none" stroke="#000000" d="M315.788,-307.8348C328.1623,-304.8095 353.1224,-298.7071 365.1699,-295.7617"/>
</g>
<!-- 18 -->
<g id="node21" class="node">
<title>18</title>
<g id="a_node21"><a xlink:title="#18: Western Europe">
<ellipse fill="#000000" stroke="#000000" stroke-width="0" cx="316.441" cy="-270.8182" rx="7" ry="7"/>
</a>
</g>
</g>
<!-- 15&#45;&#45;18 -->
<g id="edge32" class="edge">
<title>15&#45;&#45;18</title>
<path fill="none" stroke="#000000" d="M309.9619,-302.4991C311.3935,-295.4989 313.5665,-284.8736 314.9949,-277.8891"/>
</g>
<!-- 16&#45;&#45;17 -->
<g id="edge33" class="edge">
<title>16&#45;&#45;17</title>
<path fill="none" stroke="#000000" d="M379.0229,-294.7849C394.0418,-296.2537 429.0801,-299.6802 444.186,-301.1575"/>
</g>
<!-- 16&#45;&#45;18 -->
<g id="edge34" class="edge">
<title>16&#45;&#45;18</title>
<path fill="none" stroke="#000000" d="M365.1713,-291.242C354.3956,-286.7257 333.554,-277.9906 322.9618,-273.5513"/>
</g>
<!-- 19 -->
<g id="node22" class="node">
<title>19</title>
<g id="a_node22"><a xlink:title="#19: Southern Europe">
<ellipse fill="#000000" stroke="#000000" stroke-width="0" cx="379.916" cy="-255.2995" rx="7" ry="7"/>
</a>
</g>
</g>
<!-- 16&#45;&#45;19 -->
<g id="edge35" class="edge">
<title>16&#45;&#45;19</title>
<path fill="none" stroke="#000000" d="M373.4369,-286.9804C374.8685,-279.9802 377.0415,-269.3549 378.47,-262.3703"/>
</g>
<!-- 17&#45;&#45;19 -->
<g id="edge36" class="edge">
<title>17&#45;&#45;19</title>
<path fill="none" stroke="#000000" d="M445.2371,-297.8863C431.7459,-289.0906 399.4659,-268.0453 385.9889,-259.2588"/>
</g>
<!-- 26 -->
<g id="node23" class="node">
<title>26</title>
<g id="a_node23"><a xlink:title="#26: Ural">
<ellipse fill="#000000" stroke="#000000" stroke-width="0" cx="530.6693" cy="-325.1338" rx="7" ry="7"/>
</a>
</g>
</g>
<!-- 17&#45;&#45;26 -->
<g id="edge37" class="edge">
<title>17&#45;&#45;26</title>
<path fill="none" stroke="#000000" d="M458.0903,-303.8404C473.0806,-308.2382 508.9473,-318.7609 523.9216,-323.1541"/>
</g>
<!-- 31 -->
<g id="node24" class="node">
<title>31</title>
<g id="a_node24"><a xlink:title="#31: Kazakhstan">
<ellipse fill="#000000" stroke="#000000" stroke-width="0" cx="530.6693" cy="-255.2995" rx="7" ry="7"/>
</a>
</g>
</g>
<!-- 17&#45;&#45;31 -->
<g id="edge38" class="edge">
<title>17&#45;&#45;31</title>
<path fill="none" stroke="#000000" d="M457.5515,-298.2025C472.3105,-289.5424 509.3026,-267.8368 524.2519,-259.0651"/>
</g>
<!-- 35 -->
<g id="node25" class="node">
<title>35</title>
<g id="a_node25"><a xlink:title="#35: Middle East">
<ellipse fill="#000000" stroke="#000000" stroke-width="0" cx="475.1286" cy="-208.7434" rx="7" ry="7"/>
</a>
</g>
</g>
<!-- 17&#45;&#45;35 -->
<g id="edge39" class="edge">
<title>17&#45;&#45;35</title>
<path fill="none" stroke="#000000" d="M453.1146,-294.8571C457.5475,-277.5167 468.9973,-232.7276 473.3835,-215.5701"/>
</g>
<!-- 18&#45;&#45;20 -->
<g id="edge41" class="edge">
<title>18&#45;&#45;20</title>
<path fill="none" stroke="#000000" d="M313.1944,-264.4684C305.7922,-249.9906 287.7237,-214.6506 280.1729,-199.8822"/>
</g>
<!-- 18&#45;&#45;19 -->
<g id="edge40" class="edge">
<title>18&#45;&#45;19</title>
<path fill="none" stroke="#000000" d="M323.7224,-269.038C336.0967,-266.0127 361.0567,-259.9103 373.1043,-256.9649"/>
</g>
<!-- 19&#45;&#45;20 -->
<g id="edge42" class="edge">
<title>19&#45;&#45;20</title>
<path fill="none" stroke="#000000" d="M373.7726,-251.6024C355.4703,-240.5878 301.4401,-208.072 283.0107,-196.9809"/>
</g>
<!-- 19&#45;&#45;35 -->
<g id="edge44" class="edge">
<title>19&#45;&#45;35</title>
<path fill="none" stroke="#000000" d="M386.4604,-252.0995C403.9383,-243.5534 451.5495,-220.2729 468.7892,-211.8431"/>
</g>
<!-- 19&#45;&#45;21 -->
<g id="edge43" class="edge">
<title>19&#45;&#45;21</title>
<path fill="none" stroke="#000000" d="M379.0059,-248.1787C377.4753,-236.2047 374.4046,-212.1804 372.8812,-200.2624"/>
</g>
<!-- 26&#45;&#45;31 -->
<g id="edge57" class="edge">
<title>26&#45;&#45;31</title>
<path fill="none" stroke="#000000" d="M530.6693,-317.9233C530.6693,-304.5414 530.6693,-276.0065 530.6693,-262.5754"/>
</g>
<!-- 27 -->
<g id="node31" class="node">
<title>27</title>
<g id="a_node31"><a xlink:title="#27: Siberia">
<ellipse fill="#000000" stroke="#000000" stroke-width="0" cx="602.0788" cy="-325.1338" rx="7" ry="7"/>
</a>
</g>
</g>
<!-- 26&#45;&#45;27 -->
<g id="edge56" class="edge">
<title>26&#45;&#45;27</title>
<path fill="none" stroke="#000000" d="M537.7774,-325.1338C551.4651,-325.1338 581.3344,-325.1338 594.9994,-325.1338"/>
</g>
<!-- 32 -->
<g id="node32" class="node">
<title>32</title>
<g id="a_node32"><a xlink:title="#32: China">
<ellipse fill="#000000" stroke="#000000" stroke-width="0" cx="657.6195" cy="-224.2621" rx="7" ry="7"/>
</a>
</g>
</g>
<!-- 26&#45;&#45;32 -->
<g id="edge58" class="edge">
<title>26&#45;&#45;32</title>
<path fill="none" stroke="#000000" d="M536.454,-320.5374C557.6997,-303.6561 631.2675,-245.2008 652.0893,-228.6562"/>
</g>
<!-- 31&#45;&#45;35 -->
<g id="edge70" class="edge">
<title>31&#45;&#45;35</title>
<path fill="none" stroke="#000000" d="M525.1408,-250.6653C514.4948,-241.7415 491.2632,-222.2679 480.6348,-213.3588"/>
</g>
<!-- 31&#45;&#45;32 -->
<g id="edge69" class="edge">
<title>31&#45;&#45;32</title>
<path fill="none" stroke="#000000" d="M537.4947,-253.6308C559.5374,-248.2417 628.6696,-231.3399 650.7603,-225.939"/>
</g>
<!-- 36 -->
<g id="node37" class="node">
<title>36</title>
<g id="a_node37"><a xlink:title="#36: India">
<ellipse fill="#000000" stroke="#000000" stroke-width="0" cx="602.0788" cy="-177.7059" rx="7" ry="7"/>
</a>
</g>
</g>
<!-- 31&#45;&#45;36 -->
<g id="edge71" class="edge">
<title>31&#45;&#45;36</title>
<path fill="none" stroke="#000000" d="M535.5776,-249.9662C548.686,-235.7226 584.3944,-196.9218 597.3242,-182.8722"/>
</g>
<!-- 35&#45;&#45;36 -->
<g id="edge76" class="edge">
<title>35&#45;&#45;36</title>
<path fill="none" stroke="#000000" d="M481.954,-207.0747C503.9967,-201.6855 573.1289,-184.7837 595.2196,-179.3829"/>
</g>
<!-- 21&#45;&#45;35 -->
<g id="edge49" class="edge">
<title>21&#45;&#45;35</title>
<path fill="none" stroke="#000000" d="M379.0714,-194.2913C397.9147,-197.1263 449.0894,-204.8257 467.9893,-207.6692"/>
</g>
<!-- 21&#45;&#45;22 -->
<g id="edge48" class="edge">
<title>21&#45;&#45;22</title>
<path fill="none" stroke="#000000" d="M374.0562,-186.1238C377.1142,-175.6568 382.7962,-156.2087 385.8255,-145.8399"/>
</g>
<!-- 22&#45;&#45;35 -->
<g id="edge53" class="edge">
<title>22&#45;&#45;35</title>
<path fill="none" stroke="#000000" d="M393.577,-143.4911C409.3533,-156.1143 453.3299,-191.3015 469.2665,-204.0529"/>
</g>
<!-- 22&#45;&#45;23 -->
<g id="edge50" class="edge">
<title>22&#45;&#45;23</title>
<path fill="none" stroke="#000000" d="M381.0575,-136.418C368.9043,-131.961 343.5681,-122.6696 331.3119,-118.1749"/>
</g>
<!-- 24 -->
<g id="node29" class="node">
<title>24</title>
<g id="a_node29"><a xlink:title="#24: South Africa">
<ellipse fill="#000000" stroke="#000000" stroke-width="0" cx="356.1129" cy="-38.0374" rx="7" ry="7"/>
</a>
</g>
</g>
<!-- 22&#45;&#45;24 -->
<g id="edge51" class="edge">
<title>22&#45;&#45;24</title>
<path fill="none" stroke="#000000" d="M385.669,-131.9758C379.843,-113.4591 363.9726,-63.018 358.226,-44.7536"/>
</g>
<!-- 25 -->
<g id="node30" class="node">
<title>25</title>
<g id="a_node30"><a xlink:title="#25: Madagascar">
<ellipse fill="#000000" stroke="#000000" stroke-width="0" cx="411.6536" cy="-76.8342" rx="7" ry="7"/>
</a>
</g>
</g>
<!-- 22&#45;&#45;25 -->
<g id="edge52" class="edge">
<title>22&#45;&#45;25</title>
<path fill="none" stroke="#000000" d="M390.3978,-132.266C394.9552,-120.3809 404.4563,-95.6036 409.0524,-83.6178"/>
</g>
<!-- 23&#45;&#45;24 -->
<g id="edge54" class="edge">
<title>23&#45;&#45;24</title>
<path fill="none" stroke="#000000" d="M327.0813,-109.0155C333.0774,-94.3558 347.4241,-59.2803 353.4138,-44.6363"/>
</g>
<!-- 24&#45;&#45;25 -->
<g id="edge55" class="edge">
<title>24&#45;&#45;25</title>
<path fill="none" stroke="#000000" d="M362.0567,-42.1894C372.6907,-49.6176 394.8599,-65.1034 405.5841,-72.5945"/>
</g>
<!-- 27&#45;&#45;32 -->
<g id="edge61" class="edge">
<title>27&#45;&#45;32</title>
<path fill="none" stroke="#000000" d="M605.5531,-318.8238C615.5274,-300.7086 644.1737,-248.6819 654.1465,-230.5697"/>
</g>
<!-- 28 -->
<g id="node33" class="node">
<title>28</title>
<g id="a_node33"><a xlink:title="#28: Yakutsk">
<ellipse fill="#000000" stroke="#000000" stroke-width="0" cx="689.357" cy="-332.8931" rx="7" ry="7"/>
</a>
</g>
</g>
<!-- 27&#45;&#45;28 -->
<g id="edge59" class="edge">
<title>27&#45;&#45;28</title>
<path fill="none" stroke="#000000" d="M609.2211,-325.7687C625.6688,-327.231 666.0541,-330.8214 682.3599,-332.2711"/>
</g>
<!-- 27&#45;&#45;30 -->
<g id="edge60" class="edge">
<title>27&#45;&#45;30</title>
<path fill="none" stroke="#000000" d="M608.9273,-323.3072C625.1623,-318.9771 665.8536,-308.1243 682.2978,-303.7384"/>
</g>
<!-- 27&#45;&#45;33 -->
<g id="edge62" class="edge">
<title>27&#45;&#45;33</title>
<path fill="none" stroke="#000000" d="M608.2222,-321.4366C626.5245,-310.4221 680.5547,-277.9062 698.9841,-266.8152"/>
</g>
<!-- 32&#45;&#45;33 -->
<g id="edge72" class="edge">
<title>32&#45;&#45;33</title>
<path fill="none" stroke="#000000" d="M663.0805,-228.7126C672.1659,-236.1167 690.2973,-250.8929 699.5336,-258.42"/>
</g>
<!-- 32&#45;&#45;36 -->
<g id="edge73" class="edge">
<title>32&#45;&#45;36</title>
<path fill="none" stroke="#000000" d="M652.091,-219.6279C641.4449,-210.704 618.2133,-191.2305 607.5849,-182.3214"/>
</g>
<!-- 37 -->
<g id="node38" class="node">
<title>37</title>
<g id="a_node38"><a xlink:title="#37: Siam">
<ellipse fill="#000000" stroke="#000000" stroke-width="0" cx="689.357" cy="-162.1872" rx="7" ry="7"/>
</a>
</g>
</g>
<!-- 32&#45;&#45;37 -->
<g id="edge74" class="edge">
<title>32&#45;&#45;37</title>
<path fill="none" stroke="#000000" d="M661.0159,-217.619C667.1565,-205.6088 680.0281,-180.4335 686.0801,-168.5965"/>
</g>
<!-- 28&#45;&#45;29 -->
<g id="edge63" class="edge">
<title>28&#45;&#45;29</title>
<path fill="none" stroke="#000000" d="M696.4651,-332.8931C710.1528,-332.8931 740.0221,-332.8931 753.6871,-332.8931"/>
</g>
<!-- 28&#45;&#45;30 -->
<g id="edge64" class="edge">
<title>28&#45;&#45;30</title>
<path fill="none" stroke="#000000" d="M689.357,-325.6945C689.357,-320.6803 689.357,-314.0209 689.357,-309.0153"/>
</g>
<!-- 30&#45;&#45;33 -->
<g id="edge68" class="edge">
<title>30&#45;&#45;33</title>
<path fill="none" stroke="#000000" d="M692.1211,-295.0978C695.0337,-287.9769 699.5927,-276.8309 702.4933,-269.7393"/>
</g>
<!-- 33&#45;&#45;34 -->
<g id="edge75" class="edge">
<title>33&#45;&#45;34</title>
<path fill="none" stroke="#000000" d="M712.5072,-261.2787C724.8816,-258.2533 749.8416,-252.151 761.8891,-249.2055"/>
</g>
<!-- 36&#45;&#45;37 -->
<g id="edge77" class="edge">
<title>36&#45;&#45;37</title>
<path fill="none" stroke="#000000" d="M609.2211,-176.436C625.6688,-173.5114 666.0541,-166.3306 682.3599,-163.4313"/>
</g>
<!-- 38 -->
<g id="node39" class="node">
<title>38</title>
<g id="a_node39"><a xlink:title="#38: Indonesia">
<ellipse fill="#000000" stroke="#000000" stroke-width="0" cx="721.0945" cy="-115.631" rx="7" ry="7"/>
</a>
</g>
</g>
<!-- 37&#45;&#45;38 -->
<g id="edge78" class="edge">
<title>37&#45;&#45;38</title>
<path fill="none" stroke="#000000" d="M693.5061,-156.1008C699.6222,-147.1291 710.986,-130.4593 717.0447,-121.5717"/>
</g>
<!-- 39 -->
<g id="node40" class="node">
<title>39</title>
<g id="a_node40"><a xlink:title="#39: Papua New Guinea">
<ellipse fill="#000000" stroke="#000000" stroke-width="0" cx="800.4384" cy="-92.353" rx="7" ry="7"/>
</a>
</g>
</g>
<!-- 38&#45;&#45;39 -->
<g id="edge79" class="edge">
<title>38&#45;&#45;39</title>
<path fill="none" stroke="#000000" d="M727.8593,-113.6464C742.8496,-109.2485 778.7163,-98.7258 793.6907,-94.3326"/>
</g>
<!-- 40 -->
<g id="node41" class="node">
<title>40</title>
<g id="a_node41"><a xlink:title="#40: Western Australia">
<ellipse fill="#000000" stroke="#000000" stroke-width="0" cx="736.9633" cy="-38.0374" rx="7" ry="7"/>
</a>
</g>
</g>
<!-- 38&#45;&#45;40 -->
<g id="edge80" class="edge">
<title>38&#45;&#45;40</title>
<path fill="none" stroke="#000000" d="M722.5028,-108.7451C725.5066,-94.0575 732.5142,-59.7921 735.5354,-45.0195"/>
</g>
<!-- 39&#45;&#45;40 -->
<g id="edge81" class="edge">
<title>39&#45;&#45;40</title>
<path fill="none" stroke="#000000" d="M795.0265,-87.7221C783.0343,-77.4603 754.341,-52.9075 742.3615,-42.6566"/>
</g>
<!-- 41 -->
<g id="node42" class="node">
<title>41</title>
<g id="a_node42"><a xlink:title="#41: Eastern Australia">
<ellipse fill="#000000" stroke="#000000" stroke-width="0" cx="792.504" cy="-38.0374" rx="7" ry="7"/>
</a>
</g>
</g>
<!-- 39&#45;&#45;41 -->
<g id="edge82" class="edge">
<title>39&#45;&#45;41</title>
<path fill="none" stroke="#000000" d="M799.4011,-85.2522C797.8721,-74.7851 795.0311,-55.3371 793.5164,-44.9683"/>
</g>
<!-- 40&#45;&#45;41 -->
<g id="edge83" class="edge">
<title>40&#45;&#45;41</title>
<path fill="none" stroke="#000000" d="M744.2243,-38.0374C754.9274,-38.0374 774.8141,-38.0374 785.4168,-38.0374"/>
</g>
</g>
</svg>
