<?xml version="1.0" encoding="UTF-8" standalone="no"?>
<!DOCTYPE svg PUBLIC "-//W3C//DTD SVG 1.1//EN"
 "http://www.w3.org/Graphics/SVG/1.1/DTD/svg11.dtd">
<!-- Generated by graphviz version 2.40.1 (20161225.0304)
 -->
<!-- Pages: 1 -->
<svg width="749pt" height="749pt"
 viewBox="0.00 0.00 749.00 749.00" xmlns="http://www.w3.org/2000/svg" xmlns:xlink="http://www.w3.org/1999/xlink">
<g id="graph0" class="graph" transform="scale(.8974 .8974) rotate(0) translate(36 798.6054)">
<polygon fill="#f2f2f2" stroke="transparent" points="-36,36 -36,-798.6054 798.6054,-798.6054 798.6054,36 -36,36"/>
<!-- 0 -->
<g id="node1" class="node">
<title>0</title>
<g id="a_node1"><a xlink:title="#0: Forlond">
<ellipse fill="#000000" stroke="#000000" stroke-width="0" cx="7" cy="-605.8843" rx="7" ry="7"/>
</a>
</g>
</g>
<!-- 1 -->
<g id="node2" class="node">
<title>1</title>
<g id="a_node2"><a xlink:title="#1: Grey Havens">
<ellipse fill="#000000" stroke="#000000" stroke-width="0" cx="59.4024" cy="-568.454" rx="7" ry="7"/>
</a>
</g>
</g>
<!-- 0&#45;&#45;1 -->
<g id="edge1" class="edge">
<title>0&#45;&#45;1</title>
<path fill="none" stroke="#000000" d="M13.0112,-601.5906C23.1195,-594.3704 43.4003,-579.8841 53.4613,-572.6977"/>
</g>
<!-- 2 -->
<g id="node3" class="node">
<title>2</title>
<g id="a_node3"><a xlink:title="#2: Harlond">
<ellipse fill="#000000" stroke="#000000" stroke-width="0" cx="36.9442" cy="-493.5935" rx="7" ry="7"/>
</a>
</g>
</g>
<!-- 1&#45;&#45;2 -->
<g id="edge2" class="edge">
<title>1&#45;&#45;2</title>
<path fill="none" stroke="#000000" d="M57.3298,-561.5455C53.0732,-547.3567 43.3849,-515.0623 39.0773,-500.7037"/>
</g>
<!-- 3 -->
<g id="node4" class="node">
<title>3</title>
<g id="a_node4"><a xlink:title="#3: North Blue Mountains">
<ellipse fill="#000000" stroke="#000000" stroke-width="0" cx="96.8326" cy="-605.8843" rx="7" ry="7"/>
</a>
</g>
</g>
<!-- 1&#45;&#45;3 -->
<g id="edge3" class="edge">
<title>1&#45;&#45;3</title>
<path fill="none" stroke="#000000" d="M64.6069,-573.6586C71.6777,-580.7294 84.2578,-593.3095 91.4299,-600.4816"/>
</g>
<!-- 4 -->
<g id="node5" class="node">
<title>4</title>
<g id="a_node5"><a xlink:title="#4: South Blue Mountains">
<ellipse fill="#000000" stroke="#000000" stroke-width="0" cx="96.8326" cy="-471.1353" rx="7" ry="7"/>
</a>
</g>
</g>
<!-- 1&#45;&#45;4 -->
<g id="edge4" class="edge">
<title>1&#45;&#45;4</title>
<path fill="none" stroke="#000000" d="M61.9751,-561.7649C68.813,-543.9863 87.3834,-495.7033 94.2419,-477.8713"/>
</g>
<!-- 7 -->
<g id="node6" class="node">
<title>7</title>
<g id="a_node6"><a xlink:title="#7: The Shire">
<ellipse fill="#000000" stroke="#000000" stroke-width="0" cx="156.7211" cy="-523.5377" rx="7" ry="7"/>
</a>
</g>
</g>
<!-- 1&#45;&#45;7 -->
<g id="edge5" class="edge">
<title>1&#45;&#45;7</title>
<path fill="none" stroke="#000000" d="M65.7877,-565.507C83.379,-557.3879 132.4147,-534.756 150.1846,-526.5545"/>
</g>
<!-- 8 -->
<g id="node9" class="node">
<title>8</title>
<g id="a_node9"><a xlink:title="#8: Bree">
<ellipse fill="#000000" stroke="#000000" stroke-width="0" cx="231.5816" cy="-531.0238" rx="7" ry="7"/>
</a>
</g>
</g>
<!-- 7&#45;&#45;8 -->
<g id="edge10" class="edge">
<title>7&#45;&#45;8</title>
<path fill="none" stroke="#000000" d="M163.899,-524.2555C178.2445,-525.6901 210.2978,-528.8954 224.5347,-530.3191"/>
</g>
<!-- 10 -->
<g id="node11" class="node">
<title>10</title>
<g id="a_node11"><a xlink:title="#10: Minhiriath">
<ellipse fill="#000000" stroke="#000000" stroke-width="0" cx="216.6095" cy="-403.7609" rx="7" ry="7"/>
</a>
</g>
</g>
<!-- 7&#45;&#45;10 -->
<g id="edge11" class="edge">
<title>7&#45;&#45;10</title>
<path fill="none" stroke="#000000" d="M159.9409,-517.098C170.3395,-496.3008 202.9525,-431.0749 213.3737,-410.2324"/>
</g>
<!-- 5 -->
<g id="node7" class="node">
<title>5</title>
<g id="a_node7"><a xlink:title="#5: Evendim">
<ellipse fill="#000000" stroke="#000000" stroke-width="0" cx="194.1513" cy="-650.8006" rx="7" ry="7"/>
</a>
</g>
</g>
<!-- 5&#45;&#45;7 -->
<g id="edge7" class="edge">
<title>5&#45;&#45;7</title>
<path fill="none" stroke="#000000" d="M192.1389,-643.9584C185.6398,-621.8614 165.2567,-552.5589 158.7434,-530.4137"/>
</g>
<!-- 6 -->
<g id="node8" class="node">
<title>6</title>
<g id="a_node8"><a xlink:title="#6: Angmar of Old">
<ellipse fill="#000000" stroke="#000000" stroke-width="0" cx="306.4421" cy="-673.2588" rx="7" ry="7"/>
</a>
</g>
</g>
<!-- 5&#45;&#45;6 -->
<g id="edge6" class="edge">
<title>5&#45;&#45;6</title>
<path fill="none" stroke="#000000" d="M201.1756,-652.2055C221.3415,-656.2387 279.2579,-667.8219 299.4205,-671.8545"/>
</g>
<!-- 5&#45;&#45;8 -->
<g id="edge8" class="edge">
<title>5&#45;&#45;8</title>
<path fill="none" stroke="#000000" d="M196.271,-644.0177C202.8591,-622.9357 222.9289,-558.7125 229.4852,-537.7323"/>
</g>
<!-- 9 -->
<g id="node10" class="node">
<title>9</title>
<g id="a_node10"><a xlink:title="#9: Rivendell">
<ellipse fill="#000000" stroke="#000000" stroke-width="0" cx="366.3306" cy="-516.0517" rx="7" ry="7"/>
</a>
</g>
</g>
<!-- 6&#45;&#45;9 -->
<g id="edge9" class="edge">
<title>6&#45;&#45;9</title>
<path fill="none" stroke="#000000" d="M309.0155,-666.5038C318.8665,-640.6448 354.1147,-548.1182 363.8335,-522.6065"/>
</g>
<!-- 8&#45;&#45;9 -->
<g id="edge12" class="edge">
<title>8&#45;&#45;9</title>
<path fill="none" stroke="#000000" d="M238.8263,-530.2188C262.2231,-527.6192 335.6023,-519.4659 359.0501,-516.8606"/>
</g>
<!-- 8&#45;&#45;10 -->
<g id="edge13" class="edge">
<title>8&#45;&#45;10</title>
<path fill="none" stroke="#000000" d="M230.7337,-523.8169C228.0985,-501.4173 220.0706,-433.1801 217.4481,-410.8887"/>
</g>
<!-- 11 -->
<g id="node12" class="node">
<title>11</title>
<g id="a_node12"><a xlink:title="#11: Eregion">
<ellipse fill="#000000" stroke="#000000" stroke-width="0" cx="321.4143" cy="-381.3027" rx="7" ry="7"/>
</a>
</g>
</g>
<!-- 9&#45;&#45;11 -->
<g id="edge14" class="edge">
<title>9&#45;&#45;11</title>
<path fill="none" stroke="#000000" d="M364.0414,-509.1842C356.3185,-486.0155 331.2811,-410.9033 323.6455,-387.9964"/>
</g>
<!-- 10&#45;&#45;11 -->
<g id="edge15" class="edge">
<title>10&#45;&#45;11</title>
<path fill="none" stroke="#000000" d="M223.486,-402.2873C242.4305,-398.2278 295.2381,-386.9119 314.375,-382.8111"/>
</g>
<!-- 13 -->
<g id="node13" class="node">
<title>13</title>
<g id="a_node13"><a xlink:title="#13: Enedwaith">
<ellipse fill="#000000" stroke="#000000" stroke-width="0" cx="269.0119" cy="-254.0398" rx="7" ry="7"/>
</a>
</g>
</g>
<!-- 10&#45;&#45;13 -->
<g id="edge16" class="edge">
<title>10&#45;&#45;13</title>
<path fill="none" stroke="#000000" d="M218.9973,-396.9386C227.727,-371.9965 257.8574,-285.9096 266.6101,-260.9021"/>
</g>
<!-- 12 -->
<g id="node14" class="node">
<title>12</title>
<g id="a_node14"><a xlink:title="#12: Dunland">
<ellipse fill="#000000" stroke="#000000" stroke-width="0" cx="336.3864" cy="-321.4143" rx="7" ry="7"/>
</a>
</g>
</g>
<!-- 11&#45;&#45;12 -->
<g id="edge17" class="edge">
<title>11&#45;&#45;12</title>
<path fill="none" stroke="#000000" d="M323.1317,-374.4327C325.9891,-363.0033 331.6914,-340.1942 334.5962,-328.575"/>
</g>
<!-- 15 -->
<g id="node15" class="node">
<title>15</title>
<g id="a_node15"><a xlink:title="#15: Moria">
<ellipse fill="#000000" stroke="#000000" stroke-width="0" cx="418.733" cy="-381.3027" rx="7" ry="7"/>
</a>
</g>
</g>
<!-- 11&#45;&#45;15 -->
<g id="edge18" class="edge">
<title>11&#45;&#45;15</title>
<path fill="none" stroke="#000000" d="M328.729,-381.3027C346.8527,-381.3027 393.6653,-381.3027 411.5978,-381.3027"/>
</g>
<!-- 16 -->
<g id="node16" class="node">
<title>16</title>
<g id="a_node16"><a xlink:title="#16: Isengard">
<ellipse fill="#000000" stroke="#000000" stroke-width="0" cx="381.3027" cy="-231.5816" rx="7" ry="7"/>
</a>
</g>
</g>
<!-- 13&#45;&#45;16 -->
<g id="edge20" class="edge">
<title>13&#45;&#45;16</title>
<path fill="none" stroke="#000000" d="M276.0362,-252.6349C296.2021,-248.6017 354.1185,-237.0184 374.2811,-232.9859"/>
</g>
<!-- 28 -->
<g id="node17" class="node">
<title>28</title>
<g id="a_node17"><a xlink:title="#28: Anfalas">
<ellipse fill="#000000" stroke="#000000" stroke-width="0" cx="343.8724" cy="-156.7211" rx="7" ry="7"/>
</a>
</g>
</g>
<!-- 13&#45;&#45;28 -->
<g id="edge21" class="edge">
<title>13&#45;&#45;28</title>
<path fill="none" stroke="#000000" d="M273.4706,-248.2435C286.8167,-230.8935 326.3393,-179.5142 339.5309,-162.3651"/>
</g>
<!-- 12&#45;&#45;13 -->
<g id="edge19" class="edge">
<title>12&#45;&#45;13</title>
<path fill="none" stroke="#000000" d="M331.0996,-316.1275C318.4429,-303.4708 286.5315,-271.5594 274.0897,-259.1176"/>
</g>
<!-- 15&#45;&#45;16 -->
<g id="edge23" class="edge">
<title>15&#45;&#45;16</title>
<path fill="none" stroke="#000000" d="M417.0274,-374.4804C410.7919,-349.5383 389.2701,-263.4514 383.0183,-238.4439"/>
</g>
<!-- 22 -->
<g id="node19" class="node">
<title>22</title>
<g id="a_node19"><a xlink:title="#22: Lorien">
<ellipse fill="#000000" stroke="#000000" stroke-width="0" cx="456.1632" cy="-343.8724" rx="7" ry="7"/>
</a>
</g>
</g>
<!-- 15&#45;&#45;22 -->
<g id="edge24" class="edge">
<title>15&#45;&#45;22</title>
<path fill="none" stroke="#000000" d="M423.9375,-376.0982C431.0083,-369.0274 443.5884,-356.4472 450.7605,-349.2751"/>
</g>
<!-- 24 -->
<g id="node20" class="node">
<title>24</title>
<g id="a_node20"><a xlink:title="#24: West Rohan">
<ellipse fill="#000000" stroke="#000000" stroke-width="0" cx="456.1632" cy="-231.5816" rx="7" ry="7"/>
</a>
</g>
</g>
<!-- 16&#45;&#45;24 -->
<g id="edge25" class="edge">
<title>16&#45;&#45;24</title>
<path fill="none" stroke="#000000" d="M388.4806,-231.5816C402.8261,-231.5816 434.8794,-231.5816 449.1163,-231.5816"/>
</g>
<!-- 29 -->
<g id="node31" class="node">
<title>29</title>
<g id="a_node31"><a xlink:title="#29: Belfalas">
<ellipse fill="#000000" stroke="#000000" stroke-width="0" cx="531.0238" cy="-111.8047" rx="7" ry="7"/>
</a>
</g>
</g>
<!-- 28&#45;&#45;29 -->
<g id="edge45" class="edge">
<title>28&#45;&#45;29</title>
<path fill="none" stroke="#000000" d="M350.9804,-155.0151C380.6256,-147.9003 494.2501,-120.6304 523.9086,-113.5124"/>
</g>
<!-- 14 -->
<g id="node18" class="node">
<title>14</title>
<g id="a_node18"><a xlink:title="#14: Gundabad">
<ellipse fill="#000000" stroke="#000000" stroke-width="0" cx="403.7608" cy="-740.6333" rx="7" ry="7"/>
</a>
</g>
</g>
<!-- 14&#45;&#45;15 -->
<g id="edge22" class="edge">
<title>14&#45;&#45;15</title>
<path fill="none" stroke="#000000" d="M404.0599,-733.4555C405.9764,-687.4604 416.5146,-434.5439 418.4332,-388.4975"/>
</g>
<!-- 23 -->
<g id="node27" class="node">
<title>23</title>
<g id="a_node27"><a xlink:title="#23: Fangorn">
<ellipse fill="#000000" stroke="#000000" stroke-width="0" cx="448.6772" cy="-291.47" rx="7" ry="7"/>
</a>
</g>
</g>
<!-- 22&#45;&#45;23 -->
<g id="edge35" class="edge">
<title>22&#45;&#45;23</title>
<path fill="none" stroke="#000000" d="M455.1223,-336.5861C453.6921,-326.5745 451.1348,-308.6735 449.7092,-298.6945"/>
</g>
<!-- 26 -->
<g id="node26" class="node">
<title>26</title>
<g id="a_node26"><a xlink:title="#26: East Rohan">
<ellipse fill="#000000" stroke="#000000" stroke-width="0" cx="545.9959" cy="-216.6095" rx="7" ry="7"/>
</a>
</g>
</g>
<!-- 24&#45;&#45;26 -->
<g id="edge39" class="edge">
<title>24&#45;&#45;26</title>
<path fill="none" stroke="#000000" d="M463.2122,-230.4068C479.9224,-227.6217 521.8045,-220.6414 538.7301,-217.8205"/>
</g>
<!-- 25 -->
<g id="node28" class="node">
<title>25</title>
<g id="a_node28"><a xlink:title="#25: Helm&#39;s Deep">
<ellipse fill="#000000" stroke="#000000" stroke-width="0" cx="456.1632" cy="-209.1235" rx="7" ry="7"/>
</a>
</g>
</g>
<!-- 24&#45;&#45;25 -->
<g id="edge38" class="edge">
<title>24&#45;&#45;25</title>
<path fill="none" stroke="#000000" d="M456.1632,-224.4757C456.1632,-221.9056 456.1632,-219.0008 456.1632,-216.415"/>
</g>
<!-- 17 -->
<g id="node21" class="node">
<title>17</title>
<g id="a_node21"><a xlink:title="#17: Grey Mountains">
<ellipse fill="#000000" stroke="#000000" stroke-width="0" cx="531.0238" cy="-755.6054" rx="7" ry="7"/>
</a>
</g>
</g>
<!-- 18 -->
<g id="node22" class="node">
<title>18</title>
<g id="a_node22"><a xlink:title="#18: North Mirkwood">
<ellipse fill="#000000" stroke="#000000" stroke-width="0" cx="523.5377" cy="-620.8564" rx="7" ry="7"/>
</a>
</g>
</g>
<!-- 17&#45;&#45;18 -->
<g id="edge26" class="edge">
<title>17&#45;&#45;18</title>
<path fill="none" stroke="#000000" d="M530.6213,-748.3607C529.3215,-724.9638 525.2448,-651.5847 523.9422,-628.1369"/>
</g>
<!-- 19 -->
<g id="node23" class="node">
<title>19</title>
<g id="a_node23"><a xlink:title="#19: Iron Hills">
<ellipse fill="#000000" stroke="#000000" stroke-width="0" cx="718.1751" cy="-658.2867" rx="7" ry="7"/>
</a>
</g>
</g>
<!-- 17&#45;&#45;19 -->
<g id="edge27" class="edge">
<title>17&#45;&#45;19</title>
<path fill="none" stroke="#000000" d="M537.2506,-752.3674C565.665,-737.5919 682.8745,-676.643 711.7329,-661.6366"/>
</g>
<!-- 18&#45;&#45;19 -->
<g id="edge28" class="edge">
<title>18&#45;&#45;19</title>
<path fill="none" stroke="#000000" d="M530.465,-622.1886C560.668,-627.9969 680.6869,-651.0774 711.1274,-656.9314"/>
</g>
<!-- 20 -->
<g id="node24" class="node">
<title>20</title>
<g id="a_node24"><a xlink:title="#20: South Mirkwood">
<ellipse fill="#000000" stroke="#000000" stroke-width="0" cx="538.5098" cy="-418.733" rx="7" ry="7"/>
</a>
</g>
</g>
<!-- 18&#45;&#45;20 -->
<g id="edge29" class="edge">
<title>18&#45;&#45;20</title>
<path fill="none" stroke="#000000" d="M524.0706,-613.6627C526.3939,-582.298 535.6261,-457.663 537.9677,-426.0517"/>
</g>
<!-- 19&#45;&#45;20 -->
<g id="edge30" class="edge">
<title>19&#45;&#45;20</title>
<path fill="none" stroke="#000000" d="M713.7339,-652.3651C688.8769,-619.2224 567.2457,-457.0475 542.7958,-424.4476"/>
</g>
<!-- 20&#45;&#45;22 -->
<g id="edge32" class="edge">
<title>20&#45;&#45;22</title>
<path fill="none" stroke="#000000" d="M533.1068,-413.8211C518.2219,-400.2894 476.7302,-362.5696 461.6941,-348.9005"/>
</g>
<!-- 21 -->
<g id="node25" class="node">
<title>21</title>
<g id="a_node25"><a xlink:title="#21: The Brown Lands">
<ellipse fill="#000000" stroke="#000000" stroke-width="0" cx="605.8843" cy="-269.0119" rx="7" ry="7"/>
</a>
</g>
</g>
<!-- 20&#45;&#45;21 -->
<g id="edge31" class="edge">
<title>20&#45;&#45;21</title>
<path fill="none" stroke="#000000" d="M541.4048,-412.2996C552.4369,-387.784 591.7816,-300.3513 602.9242,-275.5899"/>
</g>
<!-- 21&#45;&#45;22 -->
<g id="edge33" class="edge">
<title>21&#45;&#45;22</title>
<path fill="none" stroke="#000000" d="M599.451,-272.2285C574.9353,-284.4864 487.5026,-328.2027 462.7412,-340.5834"/>
</g>
<!-- 21&#45;&#45;26 -->
<g id="edge34" class="edge">
<title>21&#45;&#45;26</title>
<path fill="none" stroke="#000000" d="M600.3575,-264.1759C588.8906,-254.1424 562.6421,-231.175 551.3369,-221.2829"/>
</g>
<!-- 31 -->
<g id="node29" class="node">
<title>31</title>
<g id="a_node29"><a xlink:title="#31: Minas Tirith">
<ellipse fill="#000000" stroke="#000000" stroke-width="0" cx="658.2867" cy="-194.1513" rx="7" ry="7"/>
</a>
</g>
</g>
<!-- 26&#45;&#45;31 -->
<g id="edge40" class="edge">
<title>26&#45;&#45;31</title>
<path fill="none" stroke="#000000" d="M553.0202,-215.2046C573.1861,-211.1715 631.1024,-199.5882 651.265,-195.5557"/>
</g>
<!-- 23&#45;&#45;24 -->
<g id="edge36" class="edge">
<title>23&#45;&#45;24</title>
<path fill="none" stroke="#000000" d="M449.5951,-284.1265C451.0475,-272.5074 453.8566,-250.0342 455.2843,-238.6129"/>
</g>
<!-- 23&#45;&#45;26 -->
<g id="edge37" class="edge">
<title>23&#45;&#45;26</title>
<path fill="none" stroke="#000000" d="M454.4735,-287.0114C471.8234,-273.6652 523.2028,-234.1427 540.3519,-220.951"/>
</g>
<!-- 33 -->
<g id="node34" class="node">
<title>33</title>
<g id="a_node34"><a xlink:title="#33: Gorgoroth">
<ellipse fill="#000000" stroke="#000000" stroke-width="0" cx="695.7169" cy="-194.1513" rx="7" ry="7"/>
</a>
</g>
</g>
<!-- 31&#45;&#45;33 -->
<g id="edge50" class="edge">
<title>31&#45;&#45;33</title>
<path fill="none" stroke="#000000" d="M665.5036,-194.1513C672.1317,-194.1513 681.9011,-194.1513 688.5222,-194.1513"/>
</g>
<!-- 27 -->
<g id="node30" class="node">
<title>27</title>
<g id="a_node30"><a xlink:title="#27: North Gondor">
<ellipse fill="#000000" stroke="#000000" stroke-width="0" cx="516.0517" cy="-171.6932" rx="7" ry="7"/>
</a>
</g>
</g>
<!-- 27&#45;&#45;28 -->
<g id="edge41" class="edge">
<title>27&#45;&#45;28</title>
<path fill="none" stroke="#000000" d="M508.6533,-171.0498C480.3316,-168.5871 378.993,-159.775 351.0515,-157.3453"/>
</g>
<!-- 27&#45;&#45;31 -->
<g id="edge44" class="edge">
<title>27&#45;&#45;31</title>
<path fill="none" stroke="#000000" d="M523.3007,-172.8377C547.7565,-176.6992 627.0416,-189.2179 651.2211,-193.0357"/>
</g>
<!-- 27&#45;&#45;29 -->
<g id="edge42" class="edge">
<title>27&#45;&#45;29</title>
<path fill="none" stroke="#000000" d="M517.7691,-164.8232C520.6265,-153.3938 526.3288,-130.5847 529.2336,-118.9655"/>
</g>
<!-- 30 -->
<g id="node32" class="node">
<title>30</title>
<g id="a_node32"><a xlink:title="#30: Ithilien">
<ellipse fill="#000000" stroke="#000000" stroke-width="0" cx="650.8006" cy="-134.2629" rx="7" ry="7"/>
</a>
</g>
</g>
<!-- 27&#45;&#45;30 -->
<g id="edge43" class="edge">
<title>27&#45;&#45;30</title>
<path fill="none" stroke="#000000" d="M522.9191,-169.7855C545.9806,-163.3796 620.5056,-142.6782 643.7854,-136.2116"/>
</g>
<!-- 29&#45;&#45;30 -->
<g id="edge46" class="edge">
<title>29&#45;&#45;30</title>
<path fill="none" stroke="#000000" d="M538.1576,-113.1423C559.5115,-117.1462 622.7476,-129.003 643.8541,-132.9604"/>
</g>
<!-- 36 -->
<g id="node33" class="node">
<title>36</title>
<g id="a_node33"><a xlink:title="#36: Harondor">
<ellipse fill="#000000" stroke="#000000" stroke-width="0" cx="620.8564" cy="-44.4302" rx="7" ry="7"/>
</a>
</g>
</g>
<!-- 29&#45;&#45;36 -->
<g id="edge47" class="edge">
<title>29&#45;&#45;36</title>
<path fill="none" stroke="#000000" d="M536.6432,-107.5902C552.7759,-95.4906 599.109,-60.7408 615.2391,-48.6432"/>
</g>
<!-- 30&#45;&#45;31 -->
<g id="edge48" class="edge">
<title>30&#45;&#45;31</title>
<path fill="none" stroke="#000000" d="M651.7186,-141.6064C653.1709,-153.2255 655.9801,-175.6987 657.4078,-187.12"/>
</g>
<!-- 30&#45;&#45;36 -->
<g id="edge49" class="edge">
<title>30&#45;&#45;36</title>
<path fill="none" stroke="#000000" d="M648.5499,-127.5109C643.0006,-110.8628 628.7098,-67.9906 623.1332,-51.2607"/>
</g>
<!-- 37 -->
<g id="node38" class="node">
<title>37</title>
<g id="a_node38"><a xlink:title="#37: Near Harad">
<ellipse fill="#000000" stroke="#000000" stroke-width="0" cx="725.6611" cy="-7" rx="7" ry="7"/>
</a>
</g>
</g>
<!-- 36&#45;&#45;37 -->
<g id="edge54" class="edge">
<title>36&#45;&#45;37</title>
<path fill="none" stroke="#000000" d="M627.7329,-41.9743C646.7685,-35.1759 699.9936,-16.167 718.8955,-9.4163"/>
</g>
<!-- 34 -->
<g id="node36" class="node">
<title>34</title>
<g id="a_node36"><a xlink:title="#34: Nurn">
<ellipse fill="#000000" stroke="#000000" stroke-width="0" cx="703.203" cy="-119.2908" rx="7" ry="7"/>
</a>
</g>
</g>
<!-- 33&#45;&#45;34 -->
<g id="edge52" class="edge">
<title>33&#45;&#45;34</title>
<path fill="none" stroke="#000000" d="M696.4347,-186.9734C697.8693,-172.6279 701.0746,-140.5746 702.4983,-126.3377"/>
</g>
<!-- 32 -->
<g id="node35" class="node">
<title>32</title>
<g id="a_node35"><a xlink:title="#32: Ash Mountains">
<ellipse fill="#000000" stroke="#000000" stroke-width="0" cx="755.6054" cy="-224.0956" rx="7" ry="7"/>
</a>
</g>
</g>
<!-- 32&#45;&#45;33 -->
<g id="edge51" class="edge">
<title>32&#45;&#45;33</title>
<path fill="none" stroke="#000000" d="M749.1963,-220.891C737.7298,-215.1578 713.8252,-203.2055 702.2615,-197.4236"/>
</g>
<!-- 35 -->
<g id="node37" class="node">
<title>35</title>
<g id="a_node37"><a xlink:title="#35: Mountains of Shadow">
<ellipse fill="#000000" stroke="#000000" stroke-width="0" cx="755.6054" cy="-81.8605" rx="7" ry="7"/>
</a>
</g>
</g>
<!-- 34&#45;&#45;35 -->
<g id="edge53" class="edge">
<title>34&#45;&#45;35</title>
<path fill="none" stroke="#000000" d="M709.2142,-114.9971C719.3225,-107.7769 739.6033,-93.2906 749.6643,-86.1042"/>
</g>
</g>
</svg>
