<?xml version="1.0" encoding="UTF-8" standalone="no"?>
<!DOCTYPE svg PUBLIC "-//W3C//DTD SVG 1.1//EN"
 "http://www.w3.org/Graphics/SVG/1.1/DTD/svg11.dtd">
<!-- Generated by graphviz version 2.40.1 (20161225.0304)
 -->
<!-- Pages: 1 -->
<svg width="428pt" height="206pt"
 viewBox="0.00 0.00 428.00 206.04" xmlns="http://www.w3.org/2000/svg" xmlns:xlink="http://www.w3.org/1999/xlink">
<g id="graph0" class="graph" transform="scale(.8015 .8015) rotate(0) translate(36 221.0544)">
<polygon fill="#f2f2f2" stroke="transparent" points="-36,36 -36,-221.0544 497.9702,-221.0544 497.9702,36 -36,36"/>
<!-- 0 -->
<g id="node1" class="node">
<title>0</title>
<g id="a_node1"><a xlink:title="#0: L1">
<ellipse fill="#000000" stroke="#000000" stroke-width="0" cx="7" cy="-7" rx="7" ry="7"/>
</a>
</g>
</g>
<!-- 1 -->
<g id="node2" class="node">
<title>1</title>
<g id="a_node2"><a xlink:title="#1: L2">
<ellipse fill="#000000" stroke="#000000" stroke-width="0" cx="7" cy="-178.0544" rx="7" ry="7"/>
</a>
</g>
</g>
<!-- 0&#45;&#45;1 -->
<g id="edge1" class="edge">
<title>0&#45;&#45;1</title>
<path fill="none" stroke="#000000" d="M7,-14.35C7,-42.4867 7,-143.1633 7,-170.9221"/>
</g>
<!-- 2 -->
<g id="node3" class="node">
<title>2</title>
<g id="a_node3"><a xlink:title="#2: L3">
<ellipse fill="#000000" stroke="#000000" stroke-width="0" cx="141.3911" cy="-92.5272" rx="7" ry="7"/>
</a>
</g>
</g>
<!-- 0&#45;&#45;2 -->
<g id="edge2" class="edge">
<title>0&#45;&#45;2</title>
<path fill="none" stroke="#000000" d="M13.1237,-10.8972C35.512,-25.1452 112.7844,-74.3218 135.2314,-88.6071"/>
</g>
<!-- 1&#45;&#45;2 -->
<g id="edge3" class="edge">
<title>1&#45;&#45;2</title>
<path fill="none" stroke="#000000" d="M13.1237,-174.1572C35.512,-159.9092 112.7844,-110.7326 135.2314,-96.4472"/>
</g>
<!-- 3 -->
<g id="node4" class="node">
<title>3</title>
<g id="a_node4"><a xlink:title="#3: R1">
<ellipse fill="#000000" stroke="#000000" stroke-width="0" cx="320.5791" cy="-92.5272" rx="7" ry="7"/>
</a>
</g>
</g>
<!-- 2&#45;&#45;3 -->
<g id="edge4" class="edge">
<title>2&#45;&#45;3</title>
<path fill="none" stroke="#000000" d="M148.6374,-92.5272C177.5774,-92.5272 284.691,-92.5272 313.439,-92.5272"/>
</g>
<!-- 4 -->
<g id="node5" class="node">
<title>4</title>
<g id="a_node5"><a xlink:title="#4: R2">
<ellipse fill="#000000" stroke="#000000" stroke-width="0" cx="454.9702" cy="-178.0544" rx="7" ry="7"/>
</a>
</g>
</g>
<!-- 3&#45;&#45;4 -->
<g id="edge5" class="edge">
<title>3&#45;&#45;4</title>
<path fill="none" stroke="#000000" d="M326.7029,-96.4244C349.0911,-110.6724 426.3636,-159.8489 448.8105,-174.1343"/>
</g>
<!-- 5 -->
<g id="node6" class="node">
<title>5</title>
<g id="a_node6"><a xlink:title="#5: R3">
<ellipse fill="#000000" stroke="#000000" stroke-width="0" cx="454.9702" cy="-7" rx="7" ry="7"/>
</a>
</g>
</g>
<!-- 3&#45;&#45;5 -->
<g id="edge6" class="edge">
<title>3&#45;&#45;5</title>
<path fill="none" stroke="#000000" d="M326.7029,-88.63C349.0911,-74.382 426.3636,-25.2054 448.8105,-10.9201"/>
</g>
<!-- 4&#45;&#45;5 -->
<g id="edge7" class="edge">
<title>4&#45;&#45;5</title>
<path fill="none" stroke="#000000" d="M454.9702,-170.7044C454.9702,-142.5677 454.9702,-41.8911 454.9702,-14.1322"/>
</g>
</g>
</svg>
