<?xml version="1.0" encoding="UTF-8" standalone="no"?>
<!DOCTYPE svg PUBLIC "-//W3C//DTD SVG 1.1//EN"
 "http://www.w3.org/Graphics/SVG/1.1/DTD/svg11.dtd">
<!-- Generated by graphviz version 2.40.1 (20161225.0304)
 -->
<!-- Pages: 1 -->
<svg width="568pt" height="568pt"
 viewBox="0.00 0.00 567.91 567.91" xmlns="http://www.w3.org/2000/svg" xmlns:xlink="http://www.w3.org/1999/xlink">
<g id="graph0" class="graph" transform="scale(1 1) rotate(0) translate(36 531.914)">
<polygon fill="#f2f2f2" stroke="transparent" points="-36,36 -36,-531.914 531.914,-531.914 531.914,36 -36,36"/>
<!-- 0 -->
<g id="node1" class="node">
<title>0</title>
<g id="a_node1"><a xlink:title="#0: A1">
<ellipse fill="#000000" stroke="#000000" stroke-width="0" cx="187.7178" cy="-187.7178" rx="7" ry="7"/>
</a>
</g>
</g>
<!-- 1 -->
<g id="node2" class="node">
<title>1</title>
<g id="a_node2"><a xlink:title="#1: A2">
<ellipse fill="#000000" stroke="#000000" stroke-width="0" cx="187.7178" cy="-67.2393" rx="7" ry="7"/>
</a>
</g>
</g>
<!-- 0&#45;&#45;1 -->
<g id="edge1" class="edge">
<title>0&#45;&#45;1</title>
<path fill="none" stroke="#000000" d="M187.7178,-180.5421C187.7178,-159.1645 187.7178,-96.0558 187.7178,-74.5297"/>
</g>
<!-- 3 -->
<g id="node3" class="node">
<title>3</title>
<g id="a_node3"><a xlink:title="#3: A4">
<ellipse fill="#000000" stroke="#000000" stroke-width="0" cx="67.2393" cy="-187.7178" rx="7" ry="7"/>
</a>
</g>
</g>
<!-- 0&#45;&#45;3 -->
<g id="edge2" class="edge">
<title>0&#45;&#45;3</title>
<path fill="none" stroke="#000000" d="M180.5421,-187.7178C159.1645,-187.7178 96.0558,-187.7178 74.5297,-187.7178"/>
</g>
<!-- 4 -->
<g id="node4" class="node">
<title>4</title>
<g id="a_node4"><a xlink:title="#4: B1">
<ellipse fill="#000000" stroke="#000000" stroke-width="0" cx="308.1963" cy="-187.7178" rx="7" ry="7"/>
</a>
</g>
</g>
<!-- 0&#45;&#45;4 -->
<g id="edge3" class="edge">
<title>0&#45;&#45;4</title>
<path fill="none" stroke="#000000" d="M194.8934,-187.7178C216.271,-187.7178 279.3798,-187.7178 300.9059,-187.7178"/>
</g>
<!-- 14 -->
<g id="node5" class="node">
<title>14</title>
<g id="a_node5"><a xlink:title="#14: D1">
<ellipse fill="#000000" stroke="#000000" stroke-width="0" cx="187.7178" cy="-308.1963" rx="7" ry="7"/>
</a>
</g>
</g>
<!-- 0&#45;&#45;14 -->
<g id="edge4" class="edge">
<title>0&#45;&#45;14</title>
<path fill="none" stroke="#000000" d="M187.7178,-194.8934C187.7178,-216.271 187.7178,-279.3798 187.7178,-300.9059"/>
</g>
<!-- 2 -->
<g id="node6" class="node">
<title>2</title>
<g id="a_node6"><a xlink:title="#2: A3">
<ellipse fill="#000000" stroke="#000000" stroke-width="0" cx="67.2393" cy="-67.2393" rx="7" ry="7"/>
</a>
</g>
</g>
<!-- 1&#45;&#45;2 -->
<g id="edge5" class="edge">
<title>1&#45;&#45;2</title>
<path fill="none" stroke="#000000" d="M180.5421,-67.2393C159.1645,-67.2393 96.0558,-67.2393 74.5297,-67.2393"/>
</g>
<!-- 5 -->
<g id="node7" class="node">
<title>5</title>
<g id="a_node7"><a xlink:title="#5: B2">
<ellipse fill="#000000" stroke="#000000" stroke-width="0" cx="308.1963" cy="-67.2393" rx="7" ry="7"/>
</a>
</g>
</g>
<!-- 4&#45;&#45;5 -->
<g id="edge7" class="edge">
<title>4&#45;&#45;5</title>
<path fill="none" stroke="#000000" d="M308.1963,-180.5421C308.1963,-159.1645 308.1963,-96.0558 308.1963,-74.5297"/>
</g>
<!-- 7 -->
<g id="node8" class="node">
<title>7</title>
<g id="a_node8"><a xlink:title="#7: B4">
<ellipse fill="#000000" stroke="#000000" stroke-width="0" cx="368.4355" cy="-127.4785" rx="7" ry="7"/>
</a>
</g>
</g>
<!-- 4&#45;&#45;7 -->
<g id="edge8" class="edge">
<title>4&#45;&#45;7</title>
<path fill="none" stroke="#000000" d="M313.3322,-182.5818C324.7131,-171.2009 351.9438,-143.9703 363.3126,-132.6015"/>
</g>
<!-- 9 -->
<g id="node9" class="node">
<title>9</title>
<g id="a_node9"><a xlink:title="#9: B6">
<ellipse fill="#000000" stroke="#000000" stroke-width="0" cx="428.6748" cy="-187.7178" rx="7" ry="7"/>
</a>
</g>
</g>
<!-- 4&#45;&#45;9 -->
<g id="edge9" class="edge">
<title>4&#45;&#45;9</title>
<path fill="none" stroke="#000000" d="M315.372,-187.7178C336.7495,-187.7178 399.8583,-187.7178 421.3844,-187.7178"/>
</g>
<!-- 10 -->
<g id="node10" class="node">
<title>10</title>
<g id="a_node10"><a xlink:title="#10: C1">
<ellipse fill="#000000" stroke="#000000" stroke-width="0" cx="308.1963" cy="-308.1963" rx="7" ry="7"/>
</a>
</g>
</g>
<!-- 4&#45;&#45;10 -->
<g id="edge10" class="edge">
<title>4&#45;&#45;10</title>
<path fill="none" stroke="#000000" d="M308.1963,-194.8934C308.1963,-216.271 308.1963,-279.3798 308.1963,-300.9059"/>
</g>
<!-- 15 -->
<g id="node16" class="node">
<title>15</title>
<g id="a_node16"><a xlink:title="#15: D2">
<ellipse fill="#000000" stroke="#000000" stroke-width="0" cx="67.2393" cy="-308.1963" rx="7" ry="7"/>
</a>
</g>
</g>
<!-- 14&#45;&#45;15 -->
<g id="edge20" class="edge">
<title>14&#45;&#45;15</title>
<path fill="none" stroke="#000000" d="M180.5421,-308.1963C159.1645,-308.1963 96.0558,-308.1963 74.5297,-308.1963"/>
</g>
<!-- 17 -->
<g id="node17" class="node">
<title>17</title>
<g id="a_node17"><a xlink:title="#17: D4">
<ellipse fill="#000000" stroke="#000000" stroke-width="0" cx="127.4785" cy="-368.4355" rx="7" ry="7"/>
</a>
</g>
</g>
<!-- 14&#45;&#45;17 -->
<g id="edge21" class="edge">
<title>14&#45;&#45;17</title>
<path fill="none" stroke="#000000" d="M182.5818,-313.3322C171.2009,-324.7131 143.9703,-351.9438 132.6015,-363.3126"/>
</g>
<!-- 19 -->
<g id="node18" class="node">
<title>19</title>
<g id="a_node18"><a xlink:title="#19: D6">
<ellipse fill="#000000" stroke="#000000" stroke-width="0" cx="187.7178" cy="-428.6748" rx="7" ry="7"/>
</a>
</g>
</g>
<!-- 14&#45;&#45;19 -->
<g id="edge22" class="edge">
<title>14&#45;&#45;19</title>
<path fill="none" stroke="#000000" d="M187.7178,-315.372C187.7178,-336.7495 187.7178,-399.8583 187.7178,-421.3844"/>
</g>
<!-- 2&#45;&#45;3 -->
<g id="edge6" class="edge">
<title>2&#45;&#45;3</title>
<path fill="none" stroke="#000000" d="M67.2393,-74.4149C67.2393,-95.7925 67.2393,-158.9012 67.2393,-180.4274"/>
</g>
<!-- 6 -->
<g id="node11" class="node">
<title>6</title>
<g id="a_node11"><a xlink:title="#6: B3">
<ellipse fill="#000000" stroke="#000000" stroke-width="0" cx="368.4355" cy="-7" rx="7" ry="7"/>
</a>
</g>
</g>
<!-- 5&#45;&#45;6 -->
<g id="edge11" class="edge">
<title>5&#45;&#45;6</title>
<path fill="none" stroke="#000000" d="M313.3322,-62.1033C324.7131,-50.7224 351.9438,-23.4918 363.3126,-12.123"/>
</g>
<!-- 8 -->
<g id="node12" class="node">
<title>8</title>
<g id="a_node12"><a xlink:title="#8: B5">
<ellipse fill="#000000" stroke="#000000" stroke-width="0" cx="488.914" cy="-127.4785" rx="7" ry="7"/>
</a>
</g>
</g>
<!-- 7&#45;&#45;8 -->
<g id="edge13" class="edge">
<title>7&#45;&#45;8</title>
<path fill="none" stroke="#000000" d="M375.6112,-127.4785C396.9888,-127.4785 460.0975,-127.4785 481.6236,-127.4785"/>
</g>
<!-- 10&#45;&#45;14 -->
<g id="edge17" class="edge">
<title>10&#45;&#45;14</title>
<path fill="none" stroke="#000000" d="M301.0206,-308.1963C279.643,-308.1963 216.5343,-308.1963 195.0082,-308.1963"/>
</g>
<!-- 11 -->
<g id="node13" class="node">
<title>11</title>
<g id="a_node13"><a xlink:title="#11: C2">
<ellipse fill="#000000" stroke="#000000" stroke-width="0" cx="428.6748" cy="-308.1963" rx="7" ry="7"/>
</a>
</g>
</g>
<!-- 10&#45;&#45;11 -->
<g id="edge15" class="edge">
<title>10&#45;&#45;11</title>
<path fill="none" stroke="#000000" d="M315.372,-308.1963C336.7495,-308.1963 399.8583,-308.1963 421.3844,-308.1963"/>
</g>
<!-- 13 -->
<g id="node14" class="node">
<title>13</title>
<g id="a_node14"><a xlink:title="#13: C4">
<ellipse fill="#000000" stroke="#000000" stroke-width="0" cx="308.1963" cy="-428.6748" rx="7" ry="7"/>
</a>
</g>
</g>
<!-- 10&#45;&#45;13 -->
<g id="edge16" class="edge">
<title>10&#45;&#45;13</title>
<path fill="none" stroke="#000000" d="M308.1963,-315.372C308.1963,-336.7495 308.1963,-399.8583 308.1963,-421.3844"/>
</g>
<!-- 6&#45;&#45;7 -->
<g id="edge12" class="edge">
<title>6&#45;&#45;7</title>
<path fill="none" stroke="#000000" d="M368.4355,-14.1757C368.4355,-35.5533 368.4355,-98.662 368.4355,-120.1881"/>
</g>
<!-- 8&#45;&#45;9 -->
<g id="edge14" class="edge">
<title>8&#45;&#45;9</title>
<path fill="none" stroke="#000000" d="M483.7781,-132.6145C472.3972,-143.9954 445.1666,-171.226 433.7978,-182.5948"/>
</g>
<!-- 12 -->
<g id="node15" class="node">
<title>12</title>
<g id="a_node15"><a xlink:title="#12: C3">
<ellipse fill="#000000" stroke="#000000" stroke-width="0" cx="428.6748" cy="-428.6748" rx="7" ry="7"/>
</a>
</g>
</g>
<!-- 11&#45;&#45;12 -->
<g id="edge18" class="edge">
<title>11&#45;&#45;12</title>
<path fill="none" stroke="#000000" d="M428.6748,-315.372C428.6748,-336.7495 428.6748,-399.8583 428.6748,-421.3844"/>
</g>
<!-- 12&#45;&#45;13 -->
<g id="edge19" class="edge">
<title>12&#45;&#45;13</title>
<path fill="none" stroke="#000000" d="M421.4991,-428.6748C400.1215,-428.6748 337.0128,-428.6748 315.4867,-428.6748"/>
</g>
<!-- 16 -->
<g id="node19" class="node">
<title>16</title>
<g id="a_node19"><a xlink:title="#16: D3">
<ellipse fill="#000000" stroke="#000000" stroke-width="0" cx="7" cy="-368.4355" rx="7" ry="7"/>
</a>
</g>
</g>
<!-- 15&#45;&#45;16 -->
<g id="edge23" class="edge">
<title>15&#45;&#45;16</title>
<path fill="none" stroke="#000000" d="M62.1033,-313.3322C50.7224,-324.7131 23.4918,-351.9438 12.123,-363.3126"/>
</g>
<!-- 18 -->
<g id="node20" class="node">
<title>18</title>
<g id="a_node20"><a xlink:title="#18: D5">
<ellipse fill="#000000" stroke="#000000" stroke-width="0" cx="127.4785" cy="-488.914" rx="7" ry="7"/>
</a>
</g>
</g>
<!-- 17&#45;&#45;18 -->
<g id="edge25" class="edge">
<title>17&#45;&#45;18</title>
<path fill="none" stroke="#000000" d="M127.4785,-375.6112C127.4785,-396.9888 127.4785,-460.0975 127.4785,-481.6236"/>
</g>
<!-- 16&#45;&#45;17 -->
<g id="edge24" class="edge">
<title>16&#45;&#45;17</title>
<path fill="none" stroke="#000000" d="M14.1757,-368.4355C35.5533,-368.4355 98.662,-368.4355 120.1881,-368.4355"/>
</g>
<!-- 18&#45;&#45;19 -->
<g id="edge26" class="edge">
<title>18&#45;&#45;19</title>
<path fill="none" stroke="#000000" d="M132.6145,-483.7781C143.9954,-472.3972 171.226,-445.1666 182.5948,-433.7978"/>
</g>
</g>
</svg>
