<?xml version="1.0" encoding="UTF-8" standalone="no"?>
<!DOCTYPE svg PUBLIC "-//W3C//DTD SVG 1.1//EN"
 "http://www.w3.org/Graphics/SVG/1.1/DTD/svg11.dtd">
<!-- Generated by graphviz version 2.40.1 (20161225.0304)
 -->
<!-- Pages: 1 -->
<svg width="389pt" height="389pt"
 viewBox="0.00 0.00 389.00 389.00" xmlns="http://www.w3.org/2000/svg" xmlns:xlink="http://www.w3.org/1999/xlink">
<g id="graph0" class="graph" transform="scale(.9798 .9798) rotate(0) translate(36 361.04)">
<polygon fill="#f2f2f2" stroke="transparent" points="-36,36 -36,-361.04 361.04,-361.04 361.04,36 -36,36"/>
<!-- 0 -->
<g id="node1" class="node">
<title>0</title>
<g id="a_node1"><a xlink:title="#0: A">
<ellipse fill="#000000" stroke="#000000" stroke-width="0" cx="7" cy="-7" rx="7" ry="7"/>
</a>
</g>
</g>
<!-- 1 -->
<g id="node2" class="node">
<title>1</title>
<g id="a_node2"><a xlink:title="#1: B">
<ellipse fill="#000000" stroke="#000000" stroke-width="0" cx="318.04" cy="-7" rx="7" ry="7"/>
</a>
</g>
</g>
<!-- 0&#45;&#45;1 -->
<g id="edge1" class="edge">
<title>0&#45;&#45;1</title>
<path fill="none" stroke="#000000" d="M14.0809,-7C55.7676,-7 268.8063,-7 310.834,-7"/>
</g>
<!-- 2 -->
<g id="node3" class="node">
<title>2</title>
<g id="a_node3"><a xlink:title="#2: C">
<ellipse fill="#000000" stroke="#000000" stroke-width="0" cx="318.04" cy="-318.04" rx="7" ry="7"/>
</a>
</g>
</g>
<!-- 0&#45;&#45;2 -->
<g id="edge2" class="edge">
<title>0&#45;&#45;2</title>
<path fill="none" stroke="#000000" d="M12.3987,-12.3987C50.3134,-50.3134 276.1728,-276.1728 312.9727,-312.9727"/>
</g>
<!-- 3 -->
<g id="node4" class="node">
<title>3</title>
<g id="a_node4"><a xlink:title="#3: D">
<ellipse fill="#000000" stroke="#000000" stroke-width="0" cx="7" cy="-318.04" rx="7" ry="7"/>
</a>
</g>
</g>
<!-- 0&#45;&#45;3 -->
<g id="edge3" class="edge">
<title>0&#45;&#45;3</title>
<path fill="none" stroke="#000000" d="M7,-14.0809C7,-55.7676 7,-268.8063 7,-310.834"/>
</g>
<!-- 1&#45;&#45;2 -->
<g id="edge4" class="edge">
<title>1&#45;&#45;2</title>
<path fill="none" stroke="#000000" d="M318.04,-14.0809C318.04,-55.7676 318.04,-268.8063 318.04,-310.834"/>
</g>
<!-- 1&#45;&#45;3 -->
<g id="edge5" class="edge">
<title>1&#45;&#45;3</title>
<path fill="none" stroke="#000000" d="M312.6413,-12.3987C274.7266,-50.3134 48.8672,-276.1728 12.0673,-312.9727"/>
</g>
<!-- 2&#45;&#45;3 -->
<g id="edge6" class="edge">
<title>2&#45;&#45;3</title>
<path fill="none" stroke="#000000" d="M310.9591,-318.04C269.2724,-318.04 56.2337,-318.04 14.206,-318.04"/>
</g>
</g>
</svg>
