<?xml version="1.0" encoding="UTF-8" standalone="no"?>
<!DOCTYPE svg PUBLIC "-//W3C//DTD SVG 1.1//EN"
 "http://www.w3.org/Graphics/SVG/1.1/DTD/svg11.dtd">
<!-- Generated by graphviz version 2.40.1 (20161225.0304)
 -->
<!-- Pages: 1 -->
<svg width="428pt" height="200pt"
 viewBox="0.00 0.00 428.00 200.39" xmlns="http://www.w3.org/2000/svg" xmlns:xlink="http://www.w3.org/1999/xlink">
<g id="graph0" class="graph" transform="scale(.6489 .6489) rotate(0) translate(36 272.818)">
<polygon fill="#f2f2f2" stroke="transparent" points="-36,36 -36,-272.818 623.5779,-272.818 623.5779,36 -36,36"/>
<!-- 0 -->
<g id="node1" class="node">
<title>0</title>
<g id="a_node1"><a xlink:title="#0: L1&#10;#2: RandomAgent&#10;4 armies">
<ellipse fill="#7d26cd" stroke="#000000" stroke-width="0" cx="8" cy="-60.7636" rx="8" ry="8"/>
</a>
</g>
</g>
<!-- 1 -->
<g id="node2" class="node">
<title>1</title>
<g id="a_node2"><a xlink:title="#1: L2&#10;#2: RandomAgent&#10;1 armies">
<ellipse fill="#7d26cd" stroke="#000000" stroke-width="0" cx="8" cy="-231.818" rx="5" ry="5"/>
</a>
</g>
</g>
<!-- 0&#45;&#45;1 -->
<g id="edge1" class="edge">
<title>0&#45;&#45;1</title>
<path fill="none" stroke="#000000" d="M8,-69.0139C8,-99.045 8,-202.0493 8,-226.5553"/>
</g>
<!-- 2 -->
<g id="node3" class="node">
<title>2</title>
<g id="a_node3"><a xlink:title="#2: L3&#10;#2: RandomAgent&#10;1 armies">
<ellipse fill="#7d26cd" stroke="#000000" stroke-width="0" cx="180.3734" cy="-146.2908" rx="5" ry="5"/>
</a>
</g>
</g>
<!-- 0&#45;&#45;2 -->
<g id="edge2" class="edge">
<title>0&#45;&#45;2</title>
<path fill="none" stroke="#000000" d="M15.4067,-64.4386C44.6625,-78.9546 151.7433,-132.0853 175.6284,-143.9364"/>
</g>
<!-- 1&#45;&#45;2 -->
<g id="edge3" class="edge">
<title>1&#45;&#45;2</title>
<path fill="none" stroke="#000000" d="M12.6106,-229.5303C37.0246,-217.4167 151.0228,-160.8538 175.6678,-148.6256"/>
</g>
<!-- 3 -->
<g id="node4" class="node">
<title>3</title>
<g id="a_node4"><a xlink:title="#3: R1&#10;#2: RandomAgent&#10;1 armies">
<ellipse fill="#7d26cd" stroke="#000000" stroke-width="0" cx="410.2045" cy="-146.2908" rx="5" ry="5"/>
</a>
</g>
</g>
<!-- 2&#45;&#45;3 -->
<g id="edge4" class="edge">
<title>2&#45;&#45;3</title>
<path fill="none" stroke="#000000" d="M185.6055,-146.2908C216.4751,-146.2908 374.5087,-146.2908 405.0802,-146.2908"/>
</g>
<!-- 4 -->
<g id="node5" class="node">
<title>4</title>
<g id="a_node5"><a xlink:title="#4: R2&#10;#2: RandomAgent&#10;1 armies">
<ellipse fill="#7d26cd" stroke="#000000" stroke-width="0" cx="582.5779" cy="-231.818" rx="5" ry="5"/>
</a>
</g>
</g>
<!-- 3&#45;&#45;4 -->
<g id="edge5" class="edge">
<title>3&#45;&#45;4</title>
<path fill="none" stroke="#000000" d="M414.8151,-148.5784C439.2291,-160.692 553.2273,-217.2549 577.8723,-229.4832"/>
</g>
<!-- 5 -->
<g id="node6" class="node">
<title>5</title>
<g id="a_node6"><a xlink:title="#5: R3&#10;#2: RandomAgent&#10;1 armies">
<ellipse fill="#7d26cd" stroke="#000000" stroke-width="0" cx="582.5779" cy="-60.7636" rx="5" ry="5"/>
</a>
</g>
</g>
<!-- 3&#45;&#45;5 -->
<g id="edge6" class="edge">
<title>3&#45;&#45;5</title>
<path fill="none" stroke="#000000" d="M414.8151,-144.0031C439.2291,-131.8895 553.2273,-75.3266 577.8723,-63.0984"/>
</g>
<!-- 4&#45;&#45;5 -->
<g id="edge7" class="edge">
<title>4&#45;&#45;5</title>
<path fill="none" stroke="#000000" d="M582.5779,-226.5111C582.5779,-201.0224 582.5779,-91.3606 582.5779,-66.0086"/>
</g>
<!-- legend -->
<g id="node7" class="node">
<title>legend</title>
<text text-anchor="start" x="100.789" y="-15.3" font-family="Times,serif" font-size="14.00" fill="#000000">Players: </text>
<text text-anchor="start" x="163.789" y="-15.3" font-family="Times,serif" font-size="14.00" fill="#cd5b45">RandomAgent</text>
<text text-anchor="start" x="265.789" y="-15.3" font-family="Times,serif" font-size="14.00" fill="#000000">, </text>
<text text-anchor="start" x="275.789" y="-15.3" font-family="Times,serif" font-size="14.00" fill="#698b22">RandomAgent</text>
<text text-anchor="start" x="377.789" y="-15.3" font-family="Times,serif" font-size="14.00" fill="#000000">, </text>
<text text-anchor="start" x="387.789" y="-15.3" font-family="Times,serif" font-size="14.00" fill="#7d26cd">RandomAgent</text>
</g>
</g>
</svg>
