<?xml version="1.0" encoding="UTF-8" standalone="no"?>
<!DOCTYPE svg PUBLIC "-//W3C//DTD SVG 1.1//EN"
 "http://www.w3.org/Graphics/SVG/1.1/DTD/svg11.dtd">
<!-- Generated by graphviz version 2.40.1 (20161225.0304)
 -->
<!-- Pages: 1 -->
<svg width="428pt" height="200pt"
 viewBox="0.00 0.00 428.00 200.11" xmlns="http://www.w3.org/2000/svg" xmlns:xlink="http://www.w3.org/1999/xlink">
<g id="graph0" class="graph" transform="scale(.648 .648) rotate(0) translate(36 272.818)">
<polygon fill="#f2f2f2" stroke="transparent" points="-36,36 -36,-272.818 624.5166,-272.818 624.5166,36 -36,36"/>
<!-- 0 -->
<g id="node1" class="node">
<title>0</title>
<g id="a_node1"><a xlink:title="#0: L1&#10;#1: RandomAgent&#10;1 armies">
<ellipse fill="#698b22" stroke="#000000" stroke-width="0" cx="5" cy="-60.7636" rx="5" ry="5"/>
</a>
</g>
</g>
<!-- 1 -->
<g id="node2" class="node">
<title>1</title>
<g id="a_node2"><a xlink:title="#1: L2&#10;#2: RandomAgent&#10;1 armies">
<ellipse fill="#7d26cd" stroke="#000000" stroke-width="0" cx="5" cy="-231.818" rx="5" ry="5"/>
</a>
</g>
</g>
<!-- 0&#45;&#45;1 -->
<g id="edge1" class="edge">
<title>0&#45;&#45;1</title>
<path fill="none" stroke="#000000" d="M5,-66.0705C5,-91.5592 5,-201.221 5,-226.573"/>
</g>
<!-- 2 -->
<g id="node3" class="node">
<title>2</title>
<g id="a_node3"><a xlink:title="#2: L3&#10;#0: RandomAgent&#10;1 armies">
<ellipse fill="#cd5b45" stroke="#000000" stroke-width="0" cx="178.555" cy="-146.2908" rx="5" ry="5"/>
</a>
</g>
</g>
<!-- 0&#45;&#45;2 -->
<g id="edge2" class="edge">
<title>0&#45;&#45;2</title>
<path fill="none" stroke="#000000" d="M9.6422,-63.0512C34.2235,-75.1648 149.0032,-131.7278 173.8172,-143.956"/>
</g>
<!-- 1&#45;&#45;2 -->
<g id="edge3" class="edge">
<title>1&#45;&#45;2</title>
<path fill="none" stroke="#000000" d="M9.6422,-229.5303C34.2235,-217.4167 149.0032,-160.8538 173.8172,-148.6256"/>
</g>
<!-- 3 -->
<g id="node4" class="node">
<title>3</title>
<g id="a_node4"><a xlink:title="#3: R1&#10;#2: RandomAgent&#10;1 armies">
<ellipse fill="#7d26cd" stroke="#000000" stroke-width="0" cx="409.9617" cy="-146.2908" rx="5" ry="5"/>
</a>
</g>
</g>
<!-- 2&#45;&#45;3 -->
<g id="edge4" class="edge">
<title>2&#45;&#45;3</title>
<path fill="none" stroke="#000000" d="M183.823,-146.2908C214.9042,-146.2908 374.0211,-146.2908 404.8022,-146.2908"/>
</g>
<!-- 4 -->
<g id="node5" class="node">
<title>4</title>
<g id="a_node5"><a xlink:title="#4: R2&#10;#1: RandomAgent&#10;1 armies">
<ellipse fill="#698b22" stroke="#000000" stroke-width="0" cx="583.5166" cy="-231.818" rx="5" ry="5"/>
</a>
</g>
</g>
<!-- 3&#45;&#45;4 -->
<g id="edge5" class="edge">
<title>3&#45;&#45;4</title>
<path fill="none" stroke="#000000" d="M414.6038,-148.5784C439.1852,-160.692 553.9648,-217.2549 578.7788,-229.4832"/>
</g>
<!-- 5 -->
<g id="node6" class="node">
<title>5</title>
<g id="a_node6"><a xlink:title="#5: R3&#10;#0: RandomAgent&#10;1 armies">
<ellipse fill="#cd5b45" stroke="#000000" stroke-width="0" cx="583.5166" cy="-60.7636" rx="5" ry="5"/>
</a>
</g>
</g>
<!-- 3&#45;&#45;5 -->
<g id="edge6" class="edge">
<title>3&#45;&#45;5</title>
<path fill="none" stroke="#000000" d="M414.6038,-144.0031C439.1852,-131.8895 553.9648,-75.3266 578.7788,-63.0984"/>
</g>
<!-- 4&#45;&#45;5 -->
<g id="edge7" class="edge">
<title>4&#45;&#45;5</title>
<path fill="none" stroke="#000000" d="M583.5166,-226.5111C583.5166,-201.0224 583.5166,-91.3606 583.5166,-66.0086"/>
</g>
<!-- legend -->
<g id="node7" class="node">
<title>legend</title>
<text text-anchor="start" x="99.7583" y="-15.3" font-family="Times,serif" font-size="14.00" fill="#000000">Players: </text>
<text text-anchor="start" x="162.7583" y="-15.3" font-family="Times,serif" font-size="14.00" fill="#cd5b45">RandomAgent</text>
<text text-anchor="start" x="264.7583" y="-15.3" font-family="Times,serif" font-size="14.00" fill="#000000">, </text>
<text text-anchor="start" x="274.7583" y="-15.3" font-family="Times,serif" font-size="14.00" fill="#698b22">RandomAgent</text>
<text text-anchor="start" x="376.7583" y="-15.3" font-family="Times,serif" font-size="14.00" fill="#000000">, </text>
<text text-anchor="start" x="386.7583" y="-15.3" font-family="Times,serif" font-size="14.00" fill="#7d26cd">RandomAgent</text>
</g>
</g>
</svg>
