<?xml version="1.0" encoding="UTF-8" standalone="no"?>
<!DOCTYPE svg PUBLIC "-//W3C//DTD SVG 1.1//EN"
 "http://www.w3.org/Graphics/SVG/1.1/DTD/svg11.dtd">
<!-- Generated by graphviz version 2.40.1 (20161225.0304)
 -->
<!-- Pages: 1 -->
<svg width="428pt" height="200pt"
 viewBox="0.00 0.00 428.00 200.48" xmlns="http://www.w3.org/2000/svg" xmlns:xlink="http://www.w3.org/1999/xlink">
<g id="graph0" class="graph" transform="scale(.6492 .6492) rotate(0) translate(36 272.818)">
<polygon fill="#f2f2f2" stroke="transparent" points="-36,36 -36,-272.818 623.2769,-272.818 623.2769,36 -36,36"/>
<!-- 0 -->
<g id="node1" class="node">
<title>0</title>
<g id="a_node1"><a xlink:title="#0: L1&#10;#1: RandomAgent&#10;3 armies">
<ellipse fill="#698b22" stroke="#000000" stroke-width="0" cx="7" cy="-60.7636" rx="7" ry="7"/>
</a>
</g>
</g>
<!-- 1 -->
<g id="node2" class="node">
<title>1</title>
<g id="a_node2"><a xlink:title="#1: L2&#10;#2: RandomAgent&#10;1 armies">
<ellipse fill="#7d26cd" stroke="#000000" stroke-width="0" cx="7" cy="-231.818" rx="5" ry="5"/>
</a>
</g>
</g>
<!-- 0&#45;&#45;1 -->
<g id="edge1" class="edge">
<title>0&#45;&#45;1</title>
<path fill="none" stroke="#000000" d="M7,-68.1136C7,-97.0176 7,-202.4723 7,-226.7913"/>
</g>
<!-- 2 -->
<g id="node3" class="node">
<title>2</title>
<g id="a_node3"><a xlink:title="#2: L3&#10;#2: RandomAgent&#10;2 armies">
<ellipse fill="#7d26cd" stroke="#000000" stroke-width="0" cx="178.9831" cy="-146.2908" rx="6" ry="6"/>
</a>
</g>
</g>
<!-- 0&#45;&#45;2 -->
<g id="edge2" class="edge">
<title>0&#45;&#45;2</title>
<g id="a_edge2"><a xlink:title="Attack(1)">
<path fill="none" stroke="#ff0000" stroke-width="4" d="M22.777,-68.6095C59.6911,-86.9669 150.3153,-132.0343 173.5069,-143.5675"/>
<polygon fill="#ff0000" stroke="#ff0000" stroke-width="4" points="24.0444,-65.3309 13.5319,-64.0119 20.9274,-71.5986 24.0444,-65.3309"/>
</a>
</g>
<text text-anchor="middle" x="84.2027" y="-109.4808" font-family="bold" font-size="18.00" fill="#ee0000">1 </text>
</g>
<!-- 1&#45;&#45;2 -->
<g id="edge3" class="edge">
<title>1&#45;&#45;2</title>
<path fill="none" stroke="#000000" d="M11.6001,-229.5303C35.6384,-217.5761 146.7212,-162.3346 173.2716,-149.1311"/>
</g>
<!-- 3 -->
<g id="node4" class="node">
<title>3</title>
<g id="a_node4"><a xlink:title="#3: R1&#10;#2: RandomAgent&#10;1 armies">
<ellipse fill="#7d26cd" stroke="#000000" stroke-width="0" cx="408.2938" cy="-146.2908" rx="5" ry="5"/>
</a>
</g>
</g>
<!-- 2&#45;&#45;3 -->
<g id="edge4" class="edge">
<title>2&#45;&#45;3</title>
<path fill="none" stroke="#000000" d="M185.1166,-146.2908C218.0222,-146.2908 373.2598,-146.2908 403.2658,-146.2908"/>
</g>
<!-- 4 -->
<g id="node5" class="node">
<title>4</title>
<g id="a_node5"><a xlink:title="#4: R2&#10;#2: RandomAgent&#10;1 armies">
<ellipse fill="#7d26cd" stroke="#000000" stroke-width="0" cx="580.2769" cy="-231.818" rx="5" ry="5"/>
</a>
</g>
</g>
<!-- 3&#45;&#45;4 -->
<g id="edge5" class="edge">
<title>3&#45;&#45;4</title>
<path fill="none" stroke="#000000" d="M412.894,-148.5784C437.2527,-160.692 550.9927,-217.2549 575.582,-229.4832"/>
</g>
<!-- 5 -->
<g id="node6" class="node">
<title>5</title>
<g id="a_node6"><a xlink:title="#5: R3&#10;#2: RandomAgent&#10;3 armies">
<ellipse fill="#7d26cd" stroke="#000000" stroke-width="0" cx="580.2769" cy="-60.7636" rx="7" ry="7"/>
</a>
</g>
</g>
<!-- 3&#45;&#45;5 -->
<g id="edge6" class="edge">
<title>3&#45;&#45;5</title>
<path fill="none" stroke="#000000" d="M412.894,-144.0031C436.7185,-132.1552 546.0471,-77.7861 573.8375,-63.9659"/>
</g>
<!-- 4&#45;&#45;5 -->
<g id="edge7" class="edge">
<title>4&#45;&#45;5</title>
<path fill="none" stroke="#000000" d="M580.2769,-226.5111C580.2769,-201.5863 580.2769,-96.1716 580.2769,-67.8132"/>
</g>
<!-- legend -->
<g id="node7" class="node">
<title>legend</title>
<text text-anchor="start" x="99.1384" y="-15.3" font-family="Times,serif" font-size="14.00" fill="#000000">Players: </text>
<text text-anchor="start" x="162.1384" y="-15.3" font-family="Times,serif" font-size="14.00" fill="#cd5b45">RandomAgent</text>
<text text-anchor="start" x="264.1384" y="-15.3" font-family="Times,serif" font-size="14.00" fill="#000000">, </text>
<text text-anchor="start" x="274.1384" y="-15.3" font-family="Times,serif" font-size="14.00" fill="#698b22">RandomAgent</text>
<text text-anchor="start" x="376.1384" y="-15.3" font-family="Times,serif" font-size="14.00" fill="#000000">, </text>
<text text-anchor="start" x="386.1384" y="-15.3" font-family="Times,serif" text-decoration="underline" font-size="14.00" fill="#7d26cd">RandomAgent</text>
</g>
</g>
</svg>
