<?xml version="1.0" encoding="UTF-8" standalone="no"?>
<!DOCTYPE svg PUBLIC "-//W3C//DTD SVG 1.1//EN"
 "http://www.w3.org/Graphics/SVG/1.1/DTD/svg11.dtd">
<!-- Generated by graphviz version 2.40.1 (20161225.0304)
 -->
<!-- Pages: 1 -->
<svg width="428pt" height="200pt"
 viewBox="0.00 0.00 428.00 200.20" xmlns="http://www.w3.org/2000/svg" xmlns:xlink="http://www.w3.org/1999/xlink">
<g id="graph0" class="graph" transform="scale(.6483 .6483) rotate(0) translate(36 272.818)">
<polygon fill="#f2f2f2" stroke="transparent" points="-36,36 -36,-272.818 624.1978,-272.818 624.1978,36 -36,36"/>
<!-- 0 -->
<g id="node1" class="node">
<title>0</title>
<g id="a_node1"><a xlink:title="#0: L1&#10;#1: RandomAgent&#10;2 armies">
<ellipse fill="#698b22" stroke="#000000" stroke-width="0" cx="6" cy="-60.7636" rx="6" ry="6"/>
</a>
</g>
</g>
<!-- 1 -->
<g id="node2" class="node">
<title>1</title>
<g id="a_node2"><a xlink:title="#1: L2&#10;#2: RandomAgent&#10;1 armies">
<ellipse fill="#7d26cd" stroke="#ee0000" stroke-width="4" cx="6" cy="-231.818" rx="5" ry="5"/>
</a>
</g>
</g>
<!-- 0&#45;&#45;1 -->
<g id="edge1" class="edge">
<title>0&#45;&#45;1</title>
<path fill="none" stroke="#000000" d="M6,-66.8515C6,-93.7521 6,-201.7243 6,-226.6608"/>
</g>
<!-- 2 -->
<g id="node3" class="node">
<title>2</title>
<g id="a_node3"><a xlink:title="#2: L3&#10;#0: RandomAgent&#10;2 armies">
<ellipse fill="#cd5b45" stroke="#000000" stroke-width="0" cx="179.1593" cy="-146.2908" rx="6" ry="6"/>
</a>
</g>
</g>
<!-- 0&#45;&#45;2 -->
<g id="edge2" class="edge">
<title>0&#45;&#45;2</title>
<path fill="none" stroke="#000000" d="M11.7613,-63.6092C38.1688,-76.6524 147.4678,-130.6377 173.5515,-143.5209"/>
</g>
<!-- 1&#45;&#45;2 -->
<g id="edge3" class="edge">
<title>1&#45;&#45;2</title>
<path fill="none" stroke="#000000" d="M10.6316,-229.5303C34.9418,-217.523 147.6727,-161.8427 173.7602,-148.9575"/>
</g>
<!-- 3 -->
<g id="node4" class="node">
<title>3</title>
<g id="a_node4"><a xlink:title="#3: R1&#10;#2: RandomAgent&#10;2 armies">
<ellipse fill="#7d26cd" stroke="#000000" stroke-width="0" cx="410.0384" cy="-146.2908" rx="6" ry="6"/>
</a>
</g>
</g>
<!-- 2&#45;&#45;3 -->
<g id="edge4" class="edge">
<title>2&#45;&#45;3</title>
<path fill="none" stroke="#000000" d="M185.3348,-146.2908C218.0352,-146.2908 370.7258,-146.2908 403.7357,-146.2908"/>
</g>
<!-- 4 -->
<g id="node5" class="node">
<title>4</title>
<g id="a_node5"><a xlink:title="#4: R2&#10;#1: RandomAgent&#10;1 armies">
<ellipse fill="#698b22" stroke="#000000" stroke-width="0" cx="583.1978" cy="-231.818" rx="5" ry="5"/>
</a>
</g>
</g>
<!-- 3&#45;&#45;4 -->
<g id="edge5" class="edge">
<title>3&#45;&#45;4</title>
<path fill="none" stroke="#000000" d="M415.7997,-149.1364C442.5593,-162.3535 554.4356,-217.6117 578.5885,-229.5413"/>
</g>
<!-- 5 -->
<g id="node6" class="node">
<title>5</title>
<g id="a_node6"><a xlink:title="#5: R3&#10;#0: RandomAgent&#10;1 armies">
<ellipse fill="#cd5b45" stroke="#000000" stroke-width="0" cx="583.1978" cy="-60.7636" rx="5" ry="5"/>
</a>
</g>
</g>
<!-- 3&#45;&#45;5 -->
<g id="edge6" class="edge">
<title>3&#45;&#45;5</title>
<path fill="none" stroke="#000000" d="M415.7997,-143.4451C442.5593,-130.228 554.4356,-74.9698 578.5885,-63.0402"/>
</g>
<!-- 4&#45;&#45;5 -->
<g id="edge7" class="edge">
<title>4&#45;&#45;5</title>
<path fill="none" stroke="#000000" d="M583.1978,-226.5111C583.1978,-201.0224 583.1978,-91.3606 583.1978,-66.0086"/>
</g>
<!-- legend -->
<g id="node7" class="node">
<title>legend</title>
<text text-anchor="start" x="100.0989" y="-15.3" font-family="Times,serif" font-size="14.00" fill="#000000">Players: </text>
<text text-anchor="start" x="163.0989" y="-15.3" font-family="Times,serif" font-size="14.00" fill="#cd5b45">RandomAgent</text>
<text text-anchor="start" x="265.0989" y="-15.3" font-family="Times,serif" font-size="14.00" fill="#000000">, </text>
<text text-anchor="start" x="275.0989" y="-15.3" font-family="Times,serif" font-size="14.00" fill="#698b22">RandomAgent</text>
<text text-anchor="start" x="377.0989" y="-15.3" font-family="Times,serif" font-size="14.00" fill="#000000">, </text>
<text text-anchor="start" x="387.0989" y="-15.3" font-family="Times,serif" text-decoration="underline" font-size="14.00" fill="#7d26cd">RandomAgent</text>
</g>
</g>
</svg>
