<?xml version="1.0" encoding="UTF-8" standalone="no"?>
<!DOCTYPE svg PUBLIC "-//W3C//DTD SVG 1.1//EN"
 "http://www.w3.org/Graphics/SVG/1.1/DTD/svg11.dtd">
<!-- Generated by graphviz version 2.40.1 (20161225.0304)
 -->
<!-- Pages: 1 -->
<svg width="428pt" height="200pt"
 viewBox="0.00 0.00 428.00 200.30" xmlns="http://www.w3.org/2000/svg" xmlns:xlink="http://www.w3.org/1999/xlink">
<g id="graph0" class="graph" transform="scale(.6486 .6486) rotate(0) translate(36 272.818)">
<polygon fill="#f2f2f2" stroke="transparent" points="-36,36 -36,-272.818 623.8849,-272.818 623.8849,36 -36,36"/>
<!-- 0 -->
<g id="node1" class="node">
<title>0</title>
<g id="a_node1"><a xlink:title="#0: L1&#10;#1: RandomAgent&#10;3 armies&#10;+3 reinforcements">
<ellipse fill="#698b22" stroke="#ee0000" stroke-width="4" cx="7" cy="-60.7636" rx="7" ry="7"/>
</a>
</g>
</g>
<!-- 1 -->
<g id="node2" class="node">
<title>1</title>
<g id="a_node2"><a xlink:title="#1: L2&#10;#2: RandomAgent&#10;1 armies">
<ellipse fill="#7d26cd" stroke="#000000" stroke-width="0" cx="7" cy="-231.818" rx="5" ry="5"/>
</a>
</g>
</g>
<!-- 0&#45;&#45;1 -->
<g id="edge1" class="edge">
<title>0&#45;&#45;1</title>
<path fill="none" stroke="#000000" d="M7,-68.1136C7,-97.0176 7,-202.4723 7,-226.7913"/>
</g>
<!-- 2 -->
<g id="node3" class="node">
<title>2</title>
<g id="a_node3"><a xlink:title="#2: L3&#10;#2: RandomAgent&#10;1 armies">
<ellipse fill="#7d26cd" stroke="#000000" stroke-width="0" cx="179.7655" cy="-146.2908" rx="5" ry="5"/>
</a>
</g>
</g>
<!-- 0&#45;&#45;2 -->
<g id="edge2" class="edge">
<title>0&#45;&#45;2</title>
<path fill="none" stroke="#000000" d="M13.5616,-64.0119C41.6677,-77.9258 151.5449,-132.3202 175.2442,-144.0526"/>
</g>
<!-- 1&#45;&#45;2 -->
<g id="edge3" class="edge">
<title>1&#45;&#45;2</title>
<path fill="none" stroke="#000000" d="M11.6211,-229.5303C36.0906,-217.4167 150.3481,-160.8538 175.0492,-148.6256"/>
</g>
<!-- 3 -->
<g id="node4" class="node">
<title>3</title>
<g id="a_node4"><a xlink:title="#3: R1&#10;#2: RandomAgent&#10;3 armies">
<ellipse fill="#7d26cd" stroke="#000000" stroke-width="0" cx="410.1194" cy="-146.2908" rx="7" ry="7"/>
</a>
</g>
</g>
<!-- 2&#45;&#45;3 -->
<g id="edge4" class="edge">
<title>2&#45;&#45;3</title>
<path fill="none" stroke="#000000" d="M185.0095,-146.2908C215.2796,-146.2908 367.5452,-146.2908 402.8168,-146.2908"/>
</g>
<!-- 4 -->
<g id="node5" class="node">
<title>4</title>
<g id="a_node5"><a xlink:title="#4: R2&#10;#2: RandomAgent&#10;1 armies">
<ellipse fill="#7d26cd" stroke="#000000" stroke-width="0" cx="582.8849" cy="-231.818" rx="5" ry="5"/>
</a>
</g>
</g>
<!-- 3&#45;&#45;4 -->
<g id="edge5" class="edge">
<title>3&#45;&#45;4</title>
<path fill="none" stroke="#000000" d="M416.681,-149.5391C444.7871,-163.453 554.6642,-217.8474 578.3636,-229.5797"/>
</g>
<!-- 5 -->
<g id="node6" class="node">
<title>5</title>
<g id="a_node6"><a xlink:title="#5: R3&#10;#2: RandomAgent&#10;1 armies">
<ellipse fill="#7d26cd" stroke="#000000" stroke-width="0" cx="582.8849" cy="-60.7636" rx="5" ry="5"/>
</a>
</g>
</g>
<!-- 3&#45;&#45;5 -->
<g id="edge6" class="edge">
<title>3&#45;&#45;5</title>
<path fill="none" stroke="#000000" d="M416.681,-143.0424C444.7871,-129.1286 554.6642,-74.7341 578.3636,-63.0018"/>
</g>
<!-- 4&#45;&#45;5 -->
<g id="edge7" class="edge">
<title>4&#45;&#45;5</title>
<path fill="none" stroke="#000000" d="M582.8849,-226.5111C582.8849,-201.0224 582.8849,-91.3606 582.8849,-66.0086"/>
</g>
<!-- legend -->
<g id="node7" class="node">
<title>legend</title>
<text text-anchor="start" x="100.4424" y="-15.3" font-family="Times,serif" font-size="14.00" fill="#000000">Players: </text>
<text text-anchor="start" x="163.4424" y="-15.3" font-family="Times,serif" font-size="14.00" fill="#cd5b45">RandomAgent</text>
<text text-anchor="start" x="265.4424" y="-15.3" font-family="Times,serif" font-size="14.00" fill="#000000">, </text>
<text text-anchor="start" x="275.4424" y="-15.3" font-family="Times,serif" text-decoration="underline" font-size="14.00" fill="#698b22">RandomAgent</text>
<text text-anchor="start" x="377.4424" y="-15.3" font-family="Times,serif" font-size="14.00" fill="#000000">, </text>
<text text-anchor="start" x="387.4424" y="-15.3" font-family="Times,serif" font-size="14.00" fill="#7d26cd">RandomAgent</text>
</g>
</g>
</svg>
