<?xml version="1.0" encoding="UTF-8" standalone="no"?>
<!DOCTYPE svg PUBLIC "-//W3C//DTD SVG 1.1//EN"
 "http://www.w3.org/Graphics/SVG/1.1/DTD/svg11.dtd">
<!-- Generated by graphviz version 2.40.1 (20161225.0304)
 -->
<!-- Pages: 1 -->
<svg width="428pt" height="200pt"
 viewBox="0.00 0.00 428.00 200.31" xmlns="http://www.w3.org/2000/svg" xmlns:xlink="http://www.w3.org/1999/xlink">
<g id="graph0" class="graph" transform="scale(.6445 .6445) rotate(0) translate(36 274.818)">
<polygon fill="#f2f2f2" stroke="transparent" points="-36,36 -36,-274.818 628.1184,-274.818 628.1184,36 -36,36"/>
<!-- 0 -->
<g id="node1" class="node">
<title>0</title>
<g id="a_node1"><a xlink:title="#0: L1&#10;#1: RandomAgent&#10;3 armies">
<ellipse fill="#698b22" stroke="#000000" stroke-width="0" cx="7" cy="-60.7636" rx="7" ry="7"/>
</a>
</g>
</g>
<!-- 1 -->
<g id="node2" class="node">
<title>1</title>
<g id="a_node2"><a xlink:title="#1: L2&#10;#2: RandomAgent&#10;3 armies">
<ellipse fill="#7d26cd" stroke="#000000" stroke-width="0" cx="7" cy="-231.818" rx="7" ry="7"/>
</a>
</g>
</g>
<!-- 0&#45;&#45;1 -->
<g id="edge1" class="edge">
<title>0&#45;&#45;1</title>
<path fill="none" stroke="#000000" d="M7,-68.1136C7,-96.2503 7,-196.9269 7,-224.6857"/>
</g>
<!-- 2 -->
<g id="node3" class="node">
<title>2</title>
<g id="a_node3"><a xlink:title="#2: L3&#10;#0: RandomAgent&#10;2 armies">
<ellipse fill="#cd5b45" stroke="#000000" stroke-width="0" cx="180.4355" cy="-146.2908" rx="6" ry="6"/>
</a>
</g>
</g>
<!-- 0&#45;&#45;2 -->
<g id="edge2" class="edge">
<title>0&#45;&#45;2</title>
<path fill="none" stroke="#000000" d="M13.5871,-64.0119C41.4309,-77.7427 149.217,-130.8958 174.9131,-143.5675"/>
</g>
<!-- 1&#45;&#45;2 -->
<g id="edge3" class="edge">
<title>1&#45;&#45;2</title>
<g id="a_edge3"><a xlink:title="Attack(2)">
<path fill="none" stroke="#ff0000" stroke-width="4" d="M13.5871,-228.5696C38.8206,-216.1261 129.7097,-171.3055 165.6551,-153.5795"/>
<polygon fill="#ff0000" stroke="#ff0000" stroke-width="4" points="167.4923,-156.576 174.9131,-149.0141 164.3963,-150.2979 167.4923,-156.576"/>
</a>
</g>
<text text-anchor="middle" x="85.0257" y="-194.2559" font-family="bold" font-size="18.00" fill="#ee0000">2 </text>
</g>
<!-- 3 -->
<g id="node4" class="node">
<title>3</title>
<g id="a_node4"><a xlink:title="#3: R1&#10;#2: RandomAgent&#10;5 armies">
<ellipse fill="#7d26cd" stroke="#000000" stroke-width="0" cx="411.6829" cy="-146.2908" rx="9" ry="9"/>
</a>
</g>
</g>
<!-- 2&#45;&#45;3 -->
<g id="edge4" class="edge">
<title>2&#45;&#45;3</title>
<path fill="none" stroke="#000000" d="M186.6208,-146.2908C218.5115,-146.2908 364.3416,-146.2908 402.5152,-146.2908"/>
</g>
<!-- 4 -->
<g id="node5" class="node">
<title>4</title>
<g id="a_node5"><a xlink:title="#4: R2&#10;#1: RandomAgent&#10;2 armies">
<ellipse fill="#698b22" stroke="#000000" stroke-width="0" cx="585.1184" cy="-231.818" rx="6" ry="6"/>
</a>
</g>
</g>
<!-- 3&#45;&#45;4 -->
<g id="edge5" class="edge">
<title>3&#45;&#45;4</title>
<path fill="none" stroke="#000000" d="M420.048,-150.4159C450.3619,-165.3648 554.0085,-216.4766 579.4465,-229.0209"/>
</g>
<!-- 5 -->
<g id="node6" class="node">
<title>5</title>
<g id="a_node6"><a xlink:title="#5: R3&#10;#0: RandomAgent&#10;3 armies">
<ellipse fill="#cd5b45" stroke="#000000" stroke-width="0" cx="585.1184" cy="-60.7636" rx="7" ry="7"/>
</a>
</g>
</g>
<!-- 3&#45;&#45;5 -->
<g id="edge6" class="edge">
<title>3&#45;&#45;5</title>
<path fill="none" stroke="#000000" d="M420.048,-142.1656C450.0912,-127.3503 552.1635,-77.0148 578.7465,-63.9058"/>
</g>
<!-- 4&#45;&#45;5 -->
<g id="edge7" class="edge">
<title>4&#45;&#45;5</title>
<path fill="none" stroke="#000000" d="M585.1184,-225.73C585.1184,-199.5436 585.1184,-96.5332 585.1184,-68.0794"/>
</g>
<!-- legend -->
<g id="node7" class="node">
<title>legend</title>
<text text-anchor="start" x="101.5592" y="-15.3" font-family="Times,serif" font-size="14.00" fill="#000000">Players: </text>
<text text-anchor="start" x="164.5592" y="-15.3" font-family="Times,serif" font-size="14.00" fill="#cd5b45">RandomAgent</text>
<text text-anchor="start" x="266.5592" y="-15.3" font-family="Times,serif" font-size="14.00" fill="#000000">, </text>
<text text-anchor="start" x="276.5592" y="-15.3" font-family="Times,serif" font-size="14.00" fill="#698b22">RandomAgent</text>
<text text-anchor="start" x="378.5592" y="-15.3" font-family="Times,serif" font-size="14.00" fill="#000000">, </text>
<text text-anchor="start" x="388.5592" y="-15.3" font-family="Times,serif" text-decoration="underline" font-size="14.00" fill="#7d26cd">RandomAgent</text>
</g>
</g>
</svg>
