<?xml version="1.0" encoding="UTF-8" standalone="no"?>
<!DOCTYPE svg PUBLIC "-//W3C//DTD SVG 1.1//EN"
 "http://www.w3.org/Graphics/SVG/1.1/DTD/svg11.dtd">
<!-- Generated by graphviz version 2.40.1 (20161225.0304)
 -->
<!-- Pages: 1 -->
<svg width="428pt" height="200pt"
 viewBox="0.00 0.00 428.00 200.22" xmlns="http://www.w3.org/2000/svg" xmlns:xlink="http://www.w3.org/1999/xlink">
<g id="graph0" class="graph" transform="scale(.6442 .6442) rotate(0) translate(36 274.818)">
<polygon fill="#f2f2f2" stroke="transparent" points="-36,36 -36,-274.818 628.4304,-274.818 628.4304,36 -36,36"/>
<!-- 0 -->
<g id="node1" class="node">
<title>0</title>
<g id="a_node1"><a xlink:title="#0: L1&#10;#1: RandomAgent&#10;2 armies">
<ellipse fill="#698b22" stroke="#000000" stroke-width="0" cx="7" cy="-60.7636" rx="6" ry="6"/>
</a>
</g>
</g>
<!-- 1 -->
<g id="node2" class="node">
<title>1</title>
<g id="a_node2"><a xlink:title="#1: L2&#10;#2: RandomAgent&#10;3 armies">
<ellipse fill="#7d26cd" stroke="#000000" stroke-width="0" cx="7" cy="-231.818" rx="7" ry="7"/>
</a>
</g>
</g>
<!-- 0&#45;&#45;1 -->
<g id="edge1" class="edge">
<title>0&#45;&#45;1</title>
<path fill="none" stroke="#000000" d="M7,-66.8515C7,-93.038 7,-196.0484 7,-224.5022"/>
</g>
<!-- 2 -->
<g id="node3" class="node">
<title>2</title>
<g id="a_node3"><a xlink:title="#2: L3&#10;#0: RandomAgent&#10;2 armies">
<ellipse fill="#cd5b45" stroke="#000000" stroke-width="0" cx="180.8291" cy="-146.2908" rx="6" ry="6"/>
</a>
</g>
</g>
<!-- 0&#45;&#45;2 -->
<g id="edge2" class="edge">
<title>0&#45;&#45;2</title>
<path fill="none" stroke="#000000" d="M12.393,-63.417C38.1805,-76.105 148.7513,-130.5079 175.152,-143.4975"/>
</g>
<!-- 1&#45;&#45;2 -->
<g id="edge3" class="edge">
<title>1&#45;&#45;2</title>
<path fill="none" stroke="#000000" d="M13.602,-228.5696C41.5091,-214.8389 149.5397,-161.6858 175.2942,-149.0141"/>
</g>
<!-- 3 -->
<g id="node4" class="node">
<title>3</title>
<g id="a_node4"><a xlink:title="#3: R1&#10;#2: RandomAgent&#10;2 armies">
<ellipse fill="#7d26cd" stroke="#000000" stroke-width="0" cx="412.6013" cy="-146.2908" rx="6" ry="6"/>
</a>
</g>
</g>
<!-- 2&#45;&#45;3 -->
<g id="edge4" class="edge">
<title>2&#45;&#45;3</title>
<path fill="none" stroke="#000000" d="M187.0285,-146.2908C219.8554,-146.2908 373.1366,-146.2908 406.2742,-146.2908"/>
</g>
<!-- 4 -->
<g id="node5" class="node">
<title>4</title>
<g id="a_node5"><a xlink:title="#4: R2&#10;#1: RandomAgent&#10;2 armies">
<ellipse fill="#698b22" stroke="#000000" stroke-width="0" cx="586.4304" cy="-231.818" rx="6" ry="6"/>
</a>
</g>
</g>
<!-- 3&#45;&#45;4 -->
<g id="edge5" class="edge">
<title>3&#45;&#45;4</title>
<path fill="none" stroke="#000000" d="M417.9942,-148.9442C443.7818,-161.6322 554.3526,-216.0351 580.7533,-229.0247"/>
</g>
<!-- 5 -->
<g id="node6" class="node">
<title>5</title>
<g id="a_node6"><a xlink:title="#5: R3&#10;#0: RandomAgent&#10;2 armies">
<ellipse fill="#cd5b45" stroke="#ee0000" stroke-width="4" cx="586.4304" cy="-60.7636" rx="6" ry="6"/>
</a>
</g>
</g>
<!-- 3&#45;&#45;5 -->
<g id="edge6" class="edge">
<title>3&#45;&#45;5</title>
<path fill="none" stroke="#000000" d="M417.9942,-143.6373C443.7818,-130.9494 554.3526,-76.5465 580.7533,-63.5568"/>
</g>
<!-- 4&#45;&#45;5 -->
<g id="edge7" class="edge">
<title>4&#45;&#45;5</title>
<path fill="none" stroke="#000000" d="M586.4304,-225.73C586.4304,-199.1865 586.4304,-93.7095 586.4304,-66.9573"/>
</g>
<!-- legend -->
<g id="node7" class="node">
<title>legend</title>
<text text-anchor="start" x="102.2152" y="-15.3" font-family="Times,serif" font-size="14.00" fill="#000000">Players: </text>
<text text-anchor="start" x="165.2152" y="-15.3" font-family="Times,serif" text-decoration="underline" font-size="14.00" fill="#cd5b45">RandomAgent</text>
<text text-anchor="start" x="267.2152" y="-15.3" font-family="Times,serif" font-size="14.00" fill="#000000">, </text>
<text text-anchor="start" x="277.2152" y="-15.3" font-family="Times,serif" font-size="14.00" fill="#698b22">RandomAgent</text>
<text text-anchor="start" x="379.2152" y="-15.3" font-family="Times,serif" font-size="14.00" fill="#000000">, </text>
<text text-anchor="start" x="389.2152" y="-15.3" font-family="Times,serif" font-size="14.00" fill="#7d26cd">RandomAgent</text>
</g>
</g>
</svg>
