<?xml version="1.0" encoding="UTF-8" standalone="no"?>
<!DOCTYPE svg PUBLIC "-//W3C//DTD SVG 1.1//EN"
 "http://www.w3.org/Graphics/SVG/1.1/DTD/svg11.dtd">
<!-- Generated by graphviz version 2.40.1 (20161225.0304)
 -->
<!-- Pages: 1 -->
<svg width="428pt" height="200pt"
 viewBox="0.00 0.00 428.00 200.21" xmlns="http://www.w3.org/2000/svg" xmlns:xlink="http://www.w3.org/1999/xlink">
<g id="graph0" class="graph" transform="scale(.6462 .6462) rotate(0) translate(36 273.818)">
<polygon fill="#f2f2f2" stroke="transparent" points="-36,36 -36,-273.818 626.3166,-273.818 626.3166,36 -36,36"/>
<!-- 0 -->
<g id="node1" class="node">
<title>0</title>
<g id="a_node1"><a xlink:title="#0: L1&#10;#1: RandomAgent&#10;2 armies">
<ellipse fill="#698b22" stroke="#000000" stroke-width="0" cx="6" cy="-60.7636" rx="6" ry="6"/>
</a>
</g>
</g>
<!-- 1 -->
<g id="node2" class="node">
<title>1</title>
<g id="a_node2"><a xlink:title="#1: L2&#10;#2: RandomAgent&#10;2 armies">
<ellipse fill="#7d26cd" stroke="#ee0000" stroke-width="4" cx="6" cy="-231.818" rx="6" ry="6"/>
</a>
</g>
</g>
<!-- 0&#45;&#45;1 -->
<g id="edge1" class="edge">
<title>0&#45;&#45;1</title>
<path fill="none" stroke="#000000" d="M6,-66.8515C6,-93.3951 6,-198.872 6,-225.6242"/>
</g>
<!-- 2 -->
<g id="node3" class="node">
<title>2</title>
<g id="a_node3"><a xlink:title="#2: L3&#10;#0: RandomAgent&#10;2 armies">
<ellipse fill="#cd5b45" stroke="#000000" stroke-width="0" cx="179.495" cy="-146.2908" rx="6" ry="6"/>
</a>
</g>
</g>
<!-- 0&#45;&#45;2 -->
<g id="edge2" class="edge">
<title>0&#45;&#45;2</title>
<path fill="none" stroke="#000000" d="M11.3826,-63.417C37.1206,-76.105 147.4788,-130.5079 173.8288,-143.4975"/>
</g>
<!-- 1&#45;&#45;2 -->
<g id="edge3" class="edge">
<title>1&#45;&#45;2</title>
<path fill="none" stroke="#000000" d="M11.3826,-229.1645C37.1206,-216.4766 147.4788,-162.0737 173.8288,-149.084"/>
</g>
<!-- 3 -->
<g id="node4" class="node">
<title>3</title>
<g id="a_node4"><a xlink:title="#3: R1&#10;#2: RandomAgent&#10;2 armies">
<ellipse fill="#7d26cd" stroke="#000000" stroke-width="0" cx="410.8216" cy="-146.2908" rx="6" ry="6"/>
</a>
</g>
</g>
<!-- 2&#45;&#45;3 -->
<g id="edge4" class="edge">
<title>2&#45;&#45;3</title>
<path fill="none" stroke="#000000" d="M185.6824,-146.2908C218.4462,-146.2908 371.4328,-146.2908 404.5067,-146.2908"/>
</g>
<!-- 4 -->
<g id="node5" class="node">
<title>4</title>
<g id="a_node5"><a xlink:title="#4: R2&#10;#1: RandomAgent&#10;2 armies">
<ellipse fill="#698b22" stroke="#000000" stroke-width="0" cx="584.3166" cy="-231.818" rx="6" ry="6"/>
</a>
</g>
</g>
<!-- 3&#45;&#45;4 -->
<g id="edge5" class="edge">
<title>3&#45;&#45;4</title>
<path fill="none" stroke="#000000" d="M416.2042,-148.9442C441.9422,-161.6322 552.3005,-216.0351 578.6504,-229.0247"/>
</g>
<!-- 5 -->
<g id="node6" class="node">
<title>5</title>
<g id="a_node6"><a xlink:title="#5: R3&#10;#0: RandomAgent&#10;2 armies">
<ellipse fill="#cd5b45" stroke="#000000" stroke-width="0" cx="584.3166" cy="-60.7636" rx="6" ry="6"/>
</a>
</g>
</g>
<!-- 3&#45;&#45;5 -->
<g id="edge6" class="edge">
<title>3&#45;&#45;5</title>
<path fill="none" stroke="#000000" d="M416.2042,-143.6373C441.9422,-130.9494 552.3005,-76.5465 578.6504,-63.5568"/>
</g>
<!-- 4&#45;&#45;5 -->
<g id="edge7" class="edge">
<title>4&#45;&#45;5</title>
<path fill="none" stroke="#000000" d="M584.3166,-225.73C584.3166,-199.1865 584.3166,-93.7095 584.3166,-66.9573"/>
</g>
<!-- legend -->
<g id="node7" class="node">
<title>legend</title>
<text text-anchor="start" x="100.6583" y="-15.3" font-family="Times,serif" font-size="14.00" fill="#000000">Players: </text>
<text text-anchor="start" x="163.6583" y="-15.3" font-family="Times,serif" font-size="14.00" fill="#cd5b45">RandomAgent</text>
<text text-anchor="start" x="265.6583" y="-15.3" font-family="Times,serif" font-size="14.00" fill="#000000">, </text>
<text text-anchor="start" x="275.6583" y="-15.3" font-family="Times,serif" font-size="14.00" fill="#698b22">RandomAgent</text>
<text text-anchor="start" x="377.6583" y="-15.3" font-family="Times,serif" font-size="14.00" fill="#000000">, </text>
<text text-anchor="start" x="387.6583" y="-15.3" font-family="Times,serif" text-decoration="underline" font-size="14.00" fill="#7d26cd">RandomAgent</text>
</g>
</g>
</svg>
