<?xml version="1.0" encoding="UTF-8" standalone="no"?>
<!DOCTYPE svg PUBLIC "-//W3C//DTD SVG 1.1//EN"
 "http://www.w3.org/Graphics/SVG/1.1/DTD/svg11.dtd">
<!-- Generated by graphviz version 2.40.1 (20161225.0304)
 -->
<!-- Pages: 1 -->
<svg width="428pt" height="200pt"
 viewBox="0.00 0.00 428.00 200.14" xmlns="http://www.w3.org/2000/svg" xmlns:xlink="http://www.w3.org/1999/xlink">
<g id="graph0" class="graph" transform="scale(.6398 .6398) rotate(0) translate(36 276.818)">
<polygon fill="#f2f2f2" stroke="transparent" points="-36,36 -36,-276.818 632.9599,-276.818 632.9599,36 -36,36"/>
<!-- 0 -->
<g id="node1" class="node">
<title>0</title>
<g id="a_node1"><a xlink:title="#0: L1&#10;#1: RandomAgent&#10;1 armies">
<ellipse fill="#698b22" stroke="#000000" stroke-width="0" cx="9" cy="-60.7636" rx="5" ry="5"/>
</a>
</g>
</g>
<!-- 1 -->
<g id="node2" class="node">
<title>1</title>
<g id="a_node2"><a xlink:title="#1: L2&#10;#1: RandomAgent&#10;5 armies">
<ellipse fill="#698b22" stroke="#000000" stroke-width="0" cx="9" cy="-231.818" rx="9" ry="9"/>
</a>
</g>
</g>
<!-- 0&#45;&#45;1 -->
<g id="edge1" class="edge">
<title>0&#45;&#45;1</title>
<path fill="none" stroke="#000000" d="M9,-66.0705C9,-90.4314 9,-191.6812 9,-222.727"/>
</g>
<!-- 2 -->
<g id="node3" class="node">
<title>2</title>
<g id="a_node3"><a xlink:title="#2: L3&#10;#2: RandomAgent&#10;1 armies">
<ellipse fill="#7d26cd" stroke="#000000" stroke-width="0" cx="183.888" cy="-146.2908" rx="5" ry="5"/>
</a>
</g>
</g>
<!-- 0&#45;&#45;2 -->
<g id="edge2" class="edge">
<title>0&#45;&#45;2</title>
<path fill="none" stroke="#000000" d="M13.6778,-63.0512C38.448,-75.1648 154.1092,-131.7278 179.1137,-143.956"/>
</g>
<!-- 1&#45;&#45;2 -->
<g id="edge3" class="edge">
<title>1&#45;&#45;2</title>
<g id="a_edge3"><a xlink:title="Attack(4)">
<path fill="none" stroke="#ff0000" stroke-width="4" d="M17.4352,-227.6928C45.3872,-214.0232 135.1721,-170.1148 169.9469,-153.1085"/>
<polygon fill="#ff0000" stroke="#ff0000" stroke-width="4" points="171.7107,-156.1421 179.1564,-148.6047 168.6354,-149.8538 171.7107,-156.1421"/>
</a>
</g>
<text text-anchor="middle" x="88.7397" y="-193.7762" font-family="bold" font-size="18.00" fill="#ee0000">4 </text>
</g>
<!-- 3 -->
<g id="node4" class="node">
<title>3</title>
<g id="a_node4"><a xlink:title="#3: R1&#10;#2: RandomAgent&#10;3 armies">
<ellipse fill="#7d26cd" stroke="#000000" stroke-width="0" cx="417.0719" cy="-146.2908" rx="7" ry="7"/>
</a>
</g>
</g>
<!-- 2&#45;&#45;3 -->
<g id="edge4" class="edge">
<title>2&#45;&#45;3</title>
<path fill="none" stroke="#000000" d="M189.1965,-146.2908C219.8385,-146.2908 373.9747,-146.2908 409.6796,-146.2908"/>
</g>
<!-- 4 -->
<g id="node5" class="node">
<title>4</title>
<g id="a_node5"><a xlink:title="#4: R2&#10;#2: RandomAgent&#10;1 armies">
<ellipse fill="#7d26cd" stroke="#000000" stroke-width="0" cx="591.9599" cy="-231.818" rx="5" ry="5"/>
</a>
</g>
</g>
<!-- 3&#45;&#45;4 -->
<g id="edge5" class="edge">
<title>3&#45;&#45;4</title>
<path fill="none" stroke="#000000" d="M423.7142,-149.5391C452.1655,-163.453 563.3926,-217.8474 587.3831,-229.5797"/>
</g>
<!-- 5 -->
<g id="node6" class="node">
<title>5</title>
<g id="a_node6"><a xlink:title="#5: R3&#10;#2: RandomAgent&#10;1 armies">
<ellipse fill="#7d26cd" stroke="#000000" stroke-width="0" cx="591.9599" cy="-60.7636" rx="5" ry="5"/>
</a>
</g>
</g>
<!-- 3&#45;&#45;5 -->
<g id="edge6" class="edge">
<title>3&#45;&#45;5</title>
<path fill="none" stroke="#000000" d="M423.7142,-143.0424C452.1655,-129.1286 563.3926,-74.7341 587.3831,-63.0018"/>
</g>
<!-- 4&#45;&#45;5 -->
<g id="edge7" class="edge">
<title>4&#45;&#45;5</title>
<path fill="none" stroke="#000000" d="M591.9599,-226.5111C591.9599,-201.0224 591.9599,-91.3606 591.9599,-66.0086"/>
</g>
<!-- legend -->
<g id="node7" class="node">
<title>legend</title>
<text text-anchor="start" x="105.9799" y="-15.3" font-family="Times,serif" font-size="14.00" fill="#000000">Players: </text>
<text text-anchor="start" x="168.9799" y="-15.3" font-family="Times,serif" font-size="14.00" fill="#cd5b45">RandomAgent</text>
<text text-anchor="start" x="270.9799" y="-15.3" font-family="Times,serif" font-size="14.00" fill="#000000">, </text>
<text text-anchor="start" x="280.9799" y="-15.3" font-family="Times,serif" text-decoration="underline" font-size="14.00" fill="#698b22">RandomAgent</text>
<text text-anchor="start" x="382.9799" y="-15.3" font-family="Times,serif" font-size="14.00" fill="#000000">, </text>
<text text-anchor="start" x="392.9799" y="-15.3" font-family="Times,serif" font-size="14.00" fill="#7d26cd">RandomAgent</text>
</g>
</g>
</svg>
