<?xml version="1.0" encoding="UTF-8" standalone="no"?>
<!DOCTYPE svg PUBLIC "-//W3C//DTD SVG 1.1//EN"
 "http://www.w3.org/Graphics/SVG/1.1/DTD/svg11.dtd">
<!-- Generated by graphviz version 2.40.1 (20161225.0304)
 -->
<!-- Pages: 1 -->
<svg width="776pt" height="373pt"
 viewBox="0.00 0.00 776.00 373.24" xmlns="http://www.w3.org/2000/svg" xmlns:xlink="http://www.w3.org/1999/xlink">
<g id="graph0" class="graph" transform="scale(.7728 .7728) rotate(0) translate(36 446.968)">
<polygon fill="#f2f2f2" stroke="transparent" points="-36,36 -36,-446.968 968.134,-446.968 968.134,36 -36,36"/>
<!-- 0 -->
<g id="node1" class="node">
<title>0</title>
<g id="a_node1"><a xlink:title="#0: Alaska&#10;#0: RandomAgent&#10;1 armies">
<ellipse fill="#cd5b45" stroke="#000000" stroke-width="0" cx="5" cy="-405.968" rx="5" ry="5"/>
</a>
</g>
</g>
<!-- 1 -->
<g id="node2" class="node">
<title>1</title>
<g id="a_node2"><a xlink:title="#1: Northwest Territory&#10;#1: RandomAgent&#10;1 armies">
<ellipse fill="#698b22" stroke="#000000" stroke-width="0" cx="69.5494" cy="-405.968" rx="5" ry="5"/>
</a>
</g>
</g>
<!-- 0&#45;&#45;1 -->
<g id="edge1" class="edge">
<title>0&#45;&#45;1</title>
<path fill="none" stroke="#000000" d="M10.0651,-405.968C22.0722,-405.968 52.1667,-405.968 64.3285,-405.968"/>
</g>
<!-- 3 -->
<g id="node3" class="node">
<title>3</title>
<g id="a_node3"><a xlink:title="#3: Alberta&#10;#0: RandomAgent&#10;1 armies">
<ellipse fill="#cd5b45" stroke="#000000" stroke-width="0" cx="41.8854" cy="-374.9306" rx="5" ry="5"/>
</a>
</g>
</g>
<!-- 0&#45;&#45;3 -->
<g id="edge2" class="edge">
<title>0&#45;&#45;3</title>
<path fill="none" stroke="#000000" d="M8.9474,-402.6464C15.9353,-396.7664 30.4234,-384.5753 37.6271,-378.5137"/>
</g>
<!-- 29 -->
<g id="node4" class="node">
<title>29</title>
<g id="a_node4"><a xlink:title="#29: Kamchatka&#10;#1: RandomAgent&#10;1 armies">
<ellipse fill="#698b22" stroke="#000000" stroke-width="0" cx="881.0273" cy="-390.4493" rx="5" ry="5"/>
</a>
</g>
</g>
<!-- 0&#45;&#45;29 -->
<g id="edge3" class="edge">
<title>0&#45;&#45;29</title>
<path fill="none" stroke="#000000" d="M10.0111,-405.2855C20.8502,-403.8469 47.2953,-400.5394 69.5794,-399.3681 150.4007,-395.1199 717.1077,-400.3856 797.9717,-397.049 827.4549,-395.8324 862.6904,-392.3639 875.7883,-391.005"/>
</g>
<!-- 1&#45;&#45;3 -->
<g id="edge5" class="edge">
<title>1&#45;&#45;3</title>
<path fill="none" stroke="#000000" d="M66.1572,-402.1622C60.8478,-396.2053 50.6318,-384.7435 45.3053,-378.7675"/>
</g>
<!-- 2 -->
<g id="node5" class="node">
<title>2</title>
<g id="a_node5"><a xlink:title="#2: Greenland&#10;#1: RandomAgent&#10;1 armies">
<ellipse fill="#698b22" stroke="#000000" stroke-width="0" cx="272.4188" cy="-405.968" rx="5" ry="5"/>
</a>
</g>
</g>
<!-- 1&#45;&#45;2 -->
<g id="edge4" class="edge">
<title>1&#45;&#45;2</title>
<path fill="none" stroke="#000000" d="M74.5642,-405.968C102.5095,-405.968 238.7795,-405.968 267.2131,-405.968"/>
</g>
<!-- 4 -->
<g id="node6" class="node">
<title>4</title>
<g id="a_node6"><a xlink:title="#4: Ontario&#10;#1: RandomAgent&#10;1 armies">
<ellipse fill="#698b22" stroke="#000000" stroke-width="0" cx="97.2134" cy="-374.9306" rx="5" ry="5"/>
</a>
</g>
</g>
<!-- 1&#45;&#45;4 -->
<g id="edge6" class="edge">
<title>1&#45;&#45;4</title>
<path fill="none" stroke="#000000" d="M72.9415,-402.1622C78.251,-396.2053 88.467,-384.7435 93.7935,-378.7675"/>
</g>
<!-- 3&#45;&#45;4 -->
<g id="edge10" class="edge">
<title>3&#45;&#45;4</title>
<path fill="none" stroke="#000000" d="M46.9913,-374.9306C57.478,-374.9306 81.3462,-374.9306 91.9584,-374.9306"/>
</g>
<!-- 6 -->
<g id="node9" class="node">
<title>6</title>
<g id="a_node9"><a xlink:title="#6: Western United States&#10;#2: RandomAgent&#10;1 armies">
<ellipse fill="#7d26cd" stroke="#000000" stroke-width="0" cx="41.8854" cy="-312.8557" rx="5" ry="5"/>
</a>
</g>
</g>
<!-- 3&#45;&#45;6 -->
<g id="edge11" class="edge">
<title>3&#45;&#45;6</title>
<path fill="none" stroke="#000000" d="M41.8854,-369.6381C41.8854,-357.9104 41.8854,-329.85 41.8854,-318.1348"/>
</g>
<!-- 30 -->
<g id="node34" class="node">
<title>30</title>
<g id="a_node34"><a xlink:title="#30: Irkutsk&#10;#2: RandomAgent&#10;1 armies">
<ellipse fill="#7d26cd" stroke="#000000" stroke-width="0" cx="798.0353" cy="-359.4118" rx="5" ry="5"/>
</a>
</g>
</g>
<!-- 29&#45;&#45;30 -->
<g id="edge65" class="edge">
<title>29&#45;&#45;30</title>
<path fill="none" stroke="#000000" d="M876.0843,-388.6007C861.2885,-383.0673 817.4729,-366.6811 802.8484,-361.2119"/>
</g>
<!-- 33 -->
<g id="node35" class="node">
<title>33</title>
<g id="a_node35"><a xlink:title="#33: Mongolia&#10;#2: RandomAgent&#10;1 armies">
<ellipse fill="#7d26cd" stroke="#000000" stroke-width="0" cx="816.4779" cy="-320.615" rx="5" ry="5"/>
</a>
</g>
</g>
<!-- 29&#45;&#45;33 -->
<g id="edge66" class="edge">
<title>29&#45;&#45;33</title>
<path fill="none" stroke="#000000" d="M877.5569,-386.6947C866.349,-374.5692 831.1978,-336.5401 819.9656,-324.3882"/>
</g>
<!-- 34 -->
<g id="node36" class="node">
<title>34</title>
<g id="a_node36"><a xlink:title="#34: Japan&#10;#1: RandomAgent&#10;1 armies">
<ellipse fill="#698b22" stroke="#000000" stroke-width="0" cx="890.2487" cy="-305.0963" rx="5" ry="5"/>
</a>
</g>
</g>
<!-- 29&#45;&#45;34 -->
<g id="edge67" class="edge">
<title>29&#45;&#45;34</title>
<path fill="none" stroke="#000000" d="M881.5765,-385.3657C883.205,-370.2925 887.9974,-325.9345 889.667,-310.48"/>
</g>
<!-- 2&#45;&#45;4 -->
<g id="edge7" class="edge">
<title>2&#45;&#45;4</title>
<path fill="none" stroke="#000000" d="M267.3642,-405.0726C241.8917,-400.5601 127.8086,-380.3505 102.2885,-375.8296"/>
</g>
<!-- 5 -->
<g id="node7" class="node">
<title>5</title>
<g id="a_node7"><a xlink:title="#5: Quebec&#10;#0: RandomAgent&#10;1 armies">
<ellipse fill="#cd5b45" stroke="#000000" stroke-width="0" cx="189.4268" cy="-374.9306" rx="5" ry="5"/>
</a>
</g>
</g>
<!-- 2&#45;&#45;5 -->
<g id="edge8" class="edge">
<title>2&#45;&#45;5</title>
<path fill="none" stroke="#000000" d="M267.4759,-404.1194C252.68,-398.5861 208.8644,-382.1999 194.2399,-376.7306"/>
</g>
<!-- 13 -->
<g id="node8" class="node">
<title>13</title>
<g id="a_node8"><a xlink:title="#13: Iceland&#10;#0: RandomAgent&#10;1 armies">
<ellipse fill="#cd5b45" stroke="#000000" stroke-width="0" cx="336.9682" cy="-390.4493" rx="5" ry="5"/>
</a>
</g>
</g>
<!-- 2&#45;&#45;13 -->
<g id="edge9" class="edge">
<title>2&#45;&#45;13</title>
<path fill="none" stroke="#000000" d="M277.4839,-404.7503C289.6099,-401.835 320.1832,-394.4847 332.1033,-391.6189"/>
</g>
<!-- 4&#45;&#45;5 -->
<g id="edge12" class="edge">
<title>4&#45;&#45;5</title>
<path fill="none" stroke="#000000" d="M102.4354,-374.9306C118.5898,-374.9306 167.6464,-374.9306 184.0324,-374.9306"/>
</g>
<!-- 4&#45;&#45;6 -->
<g id="edge13" class="edge">
<title>4&#45;&#45;6</title>
<path fill="none" stroke="#000000" d="M93.5832,-370.8577C83.4859,-359.5291 55.1664,-327.7562 45.315,-316.7036"/>
</g>
<!-- 7 -->
<g id="node10" class="node">
<title>7</title>
<g id="a_node10"><a xlink:title="#7: Eastern United States&#10;#0: RandomAgent&#10;1 armies">
<ellipse fill="#cd5b45" stroke="#000000" stroke-width="0" cx="115.6561" cy="-312.8557" rx="5" ry="5"/>
</a>
</g>
</g>
<!-- 4&#45;&#45;7 -->
<g id="edge14" class="edge">
<title>4&#45;&#45;7</title>
<path fill="none" stroke="#000000" d="M98.6606,-370.0596C102.0912,-358.5128 110.6896,-329.572 114.1644,-317.8764"/>
</g>
<!-- 5&#45;&#45;7 -->
<g id="edge15" class="edge">
<title>5&#45;&#45;7</title>
<path fill="none" stroke="#000000" d="M185.4606,-371.5931C172.6515,-360.8149 132.4788,-327.0113 119.6419,-316.2096"/>
</g>
<!-- 14 -->
<g id="node17" class="node">
<title>14</title>
<g id="a_node17"><a xlink:title="#14: Scandanavia&#10;#1: RandomAgent&#10;1 armies">
<ellipse fill="#698b22" stroke="#000000" stroke-width="0" cx="410.739" cy="-382.6899" rx="5" ry="5"/>
</a>
</g>
</g>
<!-- 13&#45;&#45;14 -->
<g id="edge26" class="edge">
<title>13&#45;&#45;14</title>
<path fill="none" stroke="#000000" d="M342.2737,-389.8912C355.8849,-388.4596 391.9233,-384.669 405.4816,-383.2429"/>
</g>
<!-- 15 -->
<g id="node18" class="node">
<title>15</title>
<g id="a_node18"><a xlink:title="#15: Great Britain&#10;#2: RandomAgent&#10;1 armies">
<ellipse fill="#7d26cd" stroke="#000000" stroke-width="0" cx="355.4109" cy="-367.1712" rx="5" ry="5"/>
</a>
</g>
</g>
<!-- 13&#45;&#45;15 -->
<g id="edge27" class="edge">
<title>13&#45;&#45;15</title>
<path fill="none" stroke="#000000" d="M340.1807,-386.3945C343.5657,-382.122 348.8642,-375.4344 352.2353,-371.1795"/>
</g>
<!-- 6&#45;&#45;7 -->
<g id="edge16" class="edge">
<title>6&#45;&#45;7</title>
<path fill="none" stroke="#000000" d="M47.1908,-312.8557C60.802,-312.8557 96.8405,-312.8557 110.3987,-312.8557"/>
</g>
<!-- 8 -->
<g id="node11" class="node">
<title>8</title>
<g id="a_node11"><a xlink:title="#8: Central America&#10;#0: RandomAgent&#10;1 armies">
<ellipse fill="#cd5b45" stroke="#000000" stroke-width="0" cx="60.328" cy="-250.7808" rx="5" ry="5"/>
</a>
</g>
</g>
<!-- 6&#45;&#45;8 -->
<g id="edge17" class="edge">
<title>6&#45;&#45;8</title>
<path fill="none" stroke="#000000" d="M43.3325,-307.9848C46.7631,-296.438 55.3615,-267.4971 58.8364,-255.8015"/>
</g>
<!-- 7&#45;&#45;8 -->
<g id="edge18" class="edge">
<title>7&#45;&#45;8</title>
<path fill="none" stroke="#000000" d="M112.0258,-308.7828C101.9286,-297.4543 73.609,-265.6813 63.7577,-254.6287"/>
</g>
<!-- 9 -->
<g id="node12" class="node">
<title>9</title>
<g id="a_node12"><a xlink:title="#9: Venezuela&#10;#2: RandomAgent&#10;1 armies">
<ellipse fill="#7d26cd" stroke="#000000" stroke-width="0" cx="115.6561" cy="-196.4653" rx="5" ry="5"/>
</a>
</g>
</g>
<!-- 8&#45;&#45;9 -->
<g id="edge19" class="edge">
<title>8&#45;&#45;9</title>
<path fill="none" stroke="#000000" d="M63.9583,-247.217C73.9593,-237.399 101.8373,-210.0312 111.9399,-200.1134"/>
</g>
<!-- 10 -->
<g id="node13" class="node">
<title>10</title>
<g id="a_node13"><a xlink:title="#10: Peru&#10;#1: RandomAgent&#10;1 armies">
<ellipse fill="#698b22" stroke="#000000" stroke-width="0" cx="106.4347" cy="-142.1498" rx="5" ry="5"/>
</a>
</g>
</g>
<!-- 9&#45;&#45;10 -->
<g id="edge20" class="edge">
<title>9&#45;&#45;10</title>
<path fill="none" stroke="#000000" d="M114.8051,-191.4528C113.0573,-181.158 109.0793,-157.7266 107.3106,-147.3086"/>
</g>
<!-- 11 -->
<g id="node14" class="node">
<title>11</title>
<g id="a_node14"><a xlink:title="#11: Brazil&#10;#1: RandomAgent&#10;1 armies">
<ellipse fill="#698b22" stroke="#000000" stroke-width="0" cx="189.4268" cy="-157.6685" rx="5" ry="5"/>
</a>
</g>
</g>
<!-- 9&#45;&#45;11 -->
<g id="edge21" class="edge">
<title>9&#45;&#45;11</title>
<path fill="none" stroke="#000000" d="M120.4964,-193.9197C133.9593,-186.8394 171.7188,-166.9813 184.8539,-160.0734"/>
</g>
<!-- 10&#45;&#45;11 -->
<g id="edge22" class="edge">
<title>10&#45;&#45;11</title>
<path fill="none" stroke="#000000" d="M111.3777,-143.0741C126.034,-145.8146 169.165,-153.8797 184.192,-156.6896"/>
</g>
<!-- 12 -->
<g id="node15" class="node">
<title>12</title>
<g id="a_node15"><a xlink:title="#12: Argentina&#10;#1: RandomAgent&#10;1 armies">
<ellipse fill="#698b22" stroke="#000000" stroke-width="0" cx="134.0987" cy="-64.5562" rx="5" ry="5"/>
</a>
</g>
</g>
<!-- 10&#45;&#45;12 -->
<g id="edge23" class="edge">
<title>10&#45;&#45;12</title>
<path fill="none" stroke="#000000" d="M108.2499,-137.0586C113.2985,-122.898 127.4582,-83.1818 132.3839,-69.366"/>
</g>
<!-- 11&#45;&#45;12 -->
<g id="edge24" class="edge">
<title>11&#45;&#45;12</title>
<path fill="none" stroke="#000000" d="M186.7582,-153.1775C177.4331,-137.4841 146.3551,-85.1825 136.8709,-69.2214"/>
</g>
<!-- 20 -->
<g id="node16" class="node">
<title>20</title>
<g id="a_node16"><a xlink:title="#20: North Africa&#10;#2: RandomAgent&#10;1 armies">
<ellipse fill="#7d26cd" stroke="#000000" stroke-width="0" cx="318.5256" cy="-250.7808" rx="5" ry="5"/>
</a>
</g>
</g>
<!-- 11&#45;&#45;20 -->
<g id="edge25" class="edge">
<title>11&#45;&#45;20</title>
<path fill="none" stroke="#000000" d="M193.7221,-160.7665C213.3227,-174.9034 294.1749,-233.2179 314.0817,-247.5757"/>
</g>
<!-- 21 -->
<g id="node26" class="node">
<title>21</title>
<g id="a_node26"><a xlink:title="#21: Egypt&#10;#0: RandomAgent&#10;1 armies">
<ellipse fill="#cd5b45" stroke="#000000" stroke-width="0" cx="429.1816" cy="-250.7808" rx="5" ry="5"/>
</a>
</g>
</g>
<!-- 20&#45;&#45;21 -->
<g id="edge45" class="edge">
<title>20&#45;&#45;21</title>
<path fill="none" stroke="#000000" d="M323.5678,-250.7808C342.002,-250.7808 405.6273,-250.7808 424.1098,-250.7808"/>
</g>
<!-- 22 -->
<g id="node27" class="node">
<title>22</title>
<g id="a_node27"><a xlink:title="#22: East Africa&#10;#0: RandomAgent&#10;1 armies">
<ellipse fill="#cd5b45" stroke="#000000" stroke-width="0" cx="447.6243" cy="-196.4653" rx="5" ry="5"/>
</a>
</g>
</g>
<!-- 20&#45;&#45;22 -->
<g id="edge46" class="edge">
<title>20&#45;&#45;22</title>
<path fill="none" stroke="#000000" d="M323.4287,-248.7179C343.9704,-240.0754 422.9648,-206.8403 442.9892,-198.4154"/>
</g>
<!-- 23 -->
<g id="node28" class="node">
<title>23</title>
<g id="a_node28"><a xlink:title="#23: Congo&#10;#0: RandomAgent&#10;1 armies">
<ellipse fill="#cd5b45" stroke="#000000" stroke-width="0" cx="373.8536" cy="-173.1872" rx="5" ry="5"/>
</a>
</g>
</g>
<!-- 20&#45;&#45;23 -->
<g id="edge47" class="edge">
<title>20&#45;&#45;23</title>
<path fill="none" stroke="#000000" d="M321.5002,-246.609C331.107,-233.1362 361.2365,-190.8817 370.8642,-177.3796"/>
</g>
<!-- 14&#45;&#45;15 -->
<g id="edge28" class="edge">
<title>14&#45;&#45;15</title>
<path fill="none" stroke="#000000" d="M405.633,-381.2578C395.0393,-378.2864 370.7896,-371.4847 360.3452,-368.5552"/>
</g>
<!-- 16 -->
<g id="node19" class="node">
<title>16</title>
<g id="a_node19"><a xlink:title="#16: Northern Europe&#10;#2: RandomAgent&#10;1 armies">
<ellipse fill="#7d26cd" stroke="#000000" stroke-width="0" cx="429.1816" cy="-351.6525" rx="5" ry="5"/>
</a>
</g>
</g>
<!-- 14&#45;&#45;16 -->
<g id="edge29" class="edge">
<title>14&#45;&#45;16</title>
<path fill="none" stroke="#000000" d="M413.3033,-378.3743C416.7873,-372.5111 422.9858,-362.0796 426.5196,-356.1324"/>
</g>
<!-- 17 -->
<g id="node20" class="node">
<title>17</title>
<g id="a_node20"><a xlink:title="#17: Ukraine&#10;#0: RandomAgent&#10;1 armies">
<ellipse fill="#cd5b45" stroke="#000000" stroke-width="0" cx="521.395" cy="-359.4118" rx="5" ry="5"/>
</a>
</g>
</g>
<!-- 14&#45;&#45;17 -->
<g id="edge30" class="edge">
<title>14&#45;&#45;17</title>
<path fill="none" stroke="#000000" d="M415.7812,-381.6292C434.2154,-377.7513 497.8407,-364.3668 516.3232,-360.4788"/>
</g>
<!-- 15&#45;&#45;16 -->
<g id="edge31" class="edge">
<title>15&#45;&#45;16</title>
<path fill="none" stroke="#000000" d="M360.7163,-366.0551C374.3276,-363.1918 410.366,-355.6106 423.9243,-352.7584"/>
</g>
<!-- 18 -->
<g id="node21" class="node">
<title>18</title>
<g id="a_node21"><a xlink:title="#18: Western Europe&#10;#1: RandomAgent&#10;1 armies">
<ellipse fill="#698b22" stroke="#000000" stroke-width="0" cx="364.6323" cy="-328.3744" rx="5" ry="5"/>
</a>
</g>
</g>
<!-- 15&#45;&#45;18 -->
<g id="edge32" class="edge">
<title>15&#45;&#45;18</title>
<path fill="none" stroke="#000000" d="M356.6164,-362.0992C358.3739,-354.7049 361.6229,-341.0358 363.397,-333.5715"/>
</g>
<!-- 16&#45;&#45;17 -->
<g id="edge33" class="edge">
<title>16&#45;&#45;17</title>
<path fill="none" stroke="#000000" d="M434.4036,-352.0919C450.558,-353.4512 499.6146,-357.5791 516.0006,-358.9579"/>
</g>
<!-- 16&#45;&#45;18 -->
<g id="edge34" class="edge">
<title>16&#45;&#45;18</title>
<path fill="none" stroke="#000000" d="M424.1166,-349.8259C411.9906,-345.453 381.4173,-334.4275 369.4972,-330.1288"/>
</g>
<!-- 19 -->
<g id="node22" class="node">
<title>19</title>
<g id="a_node22"><a xlink:title="#19: Southern Europe&#10;#1: RandomAgent&#10;1 armies">
<ellipse fill="#698b22" stroke="#000000" stroke-width="0" cx="438.403" cy="-312.8557" rx="5" ry="5"/>
</a>
</g>
</g>
<!-- 16&#45;&#45;19 -->
<g id="edge35" class="edge">
<title>16&#45;&#45;19</title>
<path fill="none" stroke="#000000" d="M430.3872,-346.5805C432.1447,-339.1862 435.3936,-325.5171 437.1677,-318.0528"/>
</g>
<!-- 17&#45;&#45;19 -->
<g id="edge36" class="edge">
<title>17&#45;&#45;19</title>
<path fill="none" stroke="#000000" d="M516.933,-356.9088C502.5229,-348.8251 457.3286,-323.4724 442.8871,-315.3711"/>
</g>
<!-- 26 -->
<g id="node23" class="node">
<title>26</title>
<g id="a_node23"><a xlink:title="#26: Ural&#10;#0: RandomAgent&#10;1 armies">
<ellipse fill="#cd5b45" stroke="#000000" stroke-width="0" cx="613.6084" cy="-382.6899" rx="5" ry="5"/>
</a>
</g>
</g>
<!-- 17&#45;&#45;26 -->
<g id="edge37" class="edge">
<title>17&#45;&#45;26</title>
<path fill="none" stroke="#000000" d="M526.3528,-360.6634C542.3641,-364.7052 592.58,-377.3816 608.6261,-381.4322"/>
</g>
<!-- 31 -->
<g id="node24" class="node">
<title>31</title>
<g id="a_node24"><a xlink:title="#31: Kazakhstan&#10;#2: RandomAgent&#10;1 armies">
<ellipse fill="#7d26cd" stroke="#000000" stroke-width="0" cx="613.6084" cy="-312.8557" rx="5" ry="5"/>
</a>
</g>
</g>
<!-- 17&#45;&#45;31 -->
<g id="edge38" class="edge">
<title>17&#45;&#45;31</title>
<path fill="none" stroke="#000000" d="M526.0947,-357.0391C541.9499,-349.0342 593.3517,-323.0828 609.0277,-315.1684"/>
</g>
<!-- 35 -->
<g id="node25" class="node">
<title>35</title>
<g id="a_node25"><a xlink:title="#35: Middle East&#10;#2: RandomAgent&#10;1 armies">
<ellipse fill="#7d26cd" stroke="#000000" stroke-width="0" cx="549.0591" cy="-266.2995" rx="5" ry="5"/>
</a>
</g>
</g>
<!-- 17&#45;&#45;35 -->
<g id="edge39" class="edge">
<title>17&#45;&#45;35</title>
<path fill="none" stroke="#000000" d="M522.8824,-354.4057C527.6858,-338.2384 542.7505,-287.5329 547.5644,-271.3304"/>
</g>
<!-- 18&#45;&#45;20 -->
<g id="edge41" class="edge">
<title>18&#45;&#45;20</title>
<path fill="none" stroke="#000000" d="M361.8861,-323.7529C353.6662,-309.9196 329.3243,-268.9541 321.1995,-255.2808"/>
</g>
<!-- 18&#45;&#45;19 -->
<g id="edge40" class="edge">
<title>18&#45;&#45;19</title>
<path fill="none" stroke="#000000" d="M369.9377,-327.2583C383.5489,-324.395 419.5874,-316.8138 433.1456,-313.9616"/>
</g>
<!-- 19&#45;&#45;20 -->
<g id="edge42" class="edge">
<title>19&#45;&#45;20</title>
<path fill="none" stroke="#000000" d="M433.85,-310.4981C414.8612,-300.6653 342.0805,-262.978 323.0831,-253.1408"/>
</g>
<!-- 19&#45;&#45;35 -->
<g id="edge44" class="edge">
<title>19&#45;&#45;35</title>
<path fill="none" stroke="#000000" d="M443.1577,-310.8552C461.3595,-303.1972 526.4878,-275.7959 544.4452,-268.2407"/>
</g>
<!-- 19&#45;&#45;21 -->
<g id="edge43" class="edge">
<title>19&#45;&#45;21</title>
<path fill="none" stroke="#000000" d="M437.6168,-307.5632C435.8746,-295.8355 431.7062,-267.7751 429.9659,-256.0599"/>
</g>
<!-- 26&#45;&#45;31 -->
<g id="edge57" class="edge">
<title>26&#45;&#45;31</title>
<path fill="none" stroke="#000000" d="M613.6084,-377.6676C613.6084,-364.9078 613.6084,-331.3277 613.6084,-318.2123"/>
</g>
<!-- 27 -->
<g id="node31" class="node">
<title>27</title>
<g id="a_node31"><a xlink:title="#27: Siberia&#10;#2: RandomAgent&#10;1 armies">
<ellipse fill="#7d26cd" stroke="#000000" stroke-width="0" cx="696.6005" cy="-382.6899" rx="5" ry="5"/>
</a>
</g>
</g>
<!-- 26&#45;&#45;27 -->
<g id="edge56" class="edge">
<title>26&#45;&#45;27</title>
<path fill="none" stroke="#000000" d="M619.0538,-382.6899C634.1996,-382.6899 676.679,-382.6899 691.456,-382.6899"/>
</g>
<!-- 32 -->
<g id="node32" class="node">
<title>32</title>
<g id="a_node32"><a xlink:title="#32: China&#10;#2: RandomAgent&#10;1 armies">
<ellipse fill="#7d26cd" stroke="#000000" stroke-width="0" cx="761.1499" cy="-281.8182" rx="5" ry="5"/>
</a>
</g>
</g>
<!-- 26&#45;&#45;32 -->
<g id="edge58" class="edge">
<title>26&#45;&#45;32</title>
<path fill="none" stroke="#000000" d="M617.865,-379.7798C639.3155,-365.1144 735.3855,-299.4329 756.8761,-284.7402"/>
</g>
<!-- 31&#45;&#45;35 -->
<g id="edge70" class="edge">
<title>31&#45;&#45;35</title>
<path fill="none" stroke="#000000" d="M609.3732,-309.801C597.7053,-301.3855 565.181,-277.9274 553.3946,-269.4265"/>
</g>
<!-- 31&#45;&#45;32 -->
<g id="edge69" class="edge">
<title>31&#45;&#45;32</title>
<path fill="none" stroke="#000000" d="M618.5174,-311.823C640.918,-307.1107 733.3206,-287.6725 756.0712,-282.8866"/>
</g>
<!-- 36 -->
<g id="node37" class="node">
<title>36</title>
<g id="a_node37"><a xlink:title="#36: India&#10;#1: RandomAgent&#10;1 armies">
<ellipse fill="#698b22" stroke="#000000" stroke-width="0" cx="696.6005" cy="-235.2621" rx="5" ry="5"/>
</a>
</g>
</g>
<!-- 31&#45;&#45;36 -->
<g id="edge71" class="edge">
<title>31&#45;&#45;36</title>
<path fill="none" stroke="#000000" d="M617.6113,-309.1132C631.7285,-295.9143 679.0821,-251.641 692.8291,-238.7882"/>
</g>
<!-- 35&#45;&#45;36 -->
<g id="edge76" class="edge">
<title>35&#45;&#45;36</title>
<path fill="none" stroke="#000000" d="M553.968,-265.2668C576.3686,-260.5546 668.7712,-241.1164 691.5218,-236.3305"/>
</g>
<!-- 21&#45;&#45;35 -->
<g id="edge49" class="edge">
<title>21&#45;&#45;35</title>
<path fill="none" stroke="#000000" d="M434.3326,-251.4476C454.0512,-254.0003 524.6069,-263.1341 544.0607,-265.6525"/>
</g>
<!-- 21&#45;&#45;22 -->
<g id="edge48" class="edge">
<title>21&#45;&#45;22</title>
<path fill="none" stroke="#000000" d="M430.8836,-245.7683C434.4149,-235.3684 442.4981,-211.5625 445.9796,-201.3093"/>
</g>
<!-- 22&#45;&#45;35 -->
<g id="edge53" class="edge">
<title>22&#45;&#45;35</title>
<path fill="none" stroke="#000000" d="M451.9828,-199.466C468.6678,-210.953 528.3688,-252.055 544.8297,-263.3877"/>
</g>
<!-- 22&#45;&#45;23 -->
<g id="edge50" class="edge">
<title>22&#45;&#45;23</title>
<path fill="none" stroke="#000000" d="M442.784,-194.9379C429.4493,-190.7302 392.2786,-179.0012 378.8085,-174.7507"/>
</g>
<!-- 24 -->
<g id="node29" class="node">
<title>24</title>
<g id="a_node29"><a xlink:title="#24: South Africa&#10;#1: RandomAgent&#10;1 armies">
<ellipse fill="#698b22" stroke="#000000" stroke-width="0" cx="410.739" cy="-95.5936" rx="5" ry="5"/>
</a>
</g>
</g>
<!-- 22&#45;&#45;24 -->
<g id="edge51" class="edge">
<title>22&#45;&#45;24</title>
<path fill="none" stroke="#000000" d="M445.8453,-191.6C439.6285,-174.5989 418.9099,-117.9388 412.5871,-100.6477"/>
</g>
<!-- 25 -->
<g id="node30" class="node">
<title>25</title>
<g id="a_node30"><a xlink:title="#25: Madagascar&#10;#2: RandomAgent&#10;1 armies">
<ellipse fill="#7d26cd" stroke="#000000" stroke-width="0" cx="475.2883" cy="-134.3904" rx="5" ry="5"/>
</a>
</g>
</g>
<!-- 22&#45;&#45;25 -->
<g id="edge52" class="edge">
<title>22&#45;&#45;25</title>
<path fill="none" stroke="#000000" d="M449.7951,-191.5944C454.9919,-179.9332 468.0948,-150.532 473.2034,-139.0688"/>
</g>
<!-- 23&#45;&#45;24 -->
<g id="edge54" class="edge">
<title>23&#45;&#45;24</title>
<path fill="none" stroke="#000000" d="M376.0505,-168.5657C382.5644,-154.8629 401.7337,-114.5374 408.4124,-100.4879"/>
</g>
<!-- 24&#45;&#45;25 -->
<g id="edge55" class="edge">
<title>24&#45;&#45;25</title>
<path fill="none" stroke="#000000" d="M415.3812,-98.3838C427.291,-105.5421 458.8247,-124.4951 470.6882,-131.6255"/>
</g>
<!-- 27&#45;&#45;32 -->
<g id="edge61" class="edge">
<title>27&#45;&#45;32</title>
<path fill="none" stroke="#000000" d="M699.3741,-378.3556C709.8953,-361.9141 747.2948,-303.4696 758.166,-286.4812"/>
</g>
<!-- 28 -->
<g id="node33" class="node">
<title>28</title>
<g id="a_node33"><a xlink:title="#28: Yakutsk&#10;#2: RandomAgent&#10;1 armies">
<ellipse fill="#7d26cd" stroke="#000000" stroke-width="0" cx="798.0353" cy="-390.4493" rx="5" ry="5"/>
</a>
</g>
</g>
<!-- 27&#45;&#45;28 -->
<g id="edge59" class="edge">
<title>27&#45;&#45;28</title>
<path fill="none" stroke="#000000" d="M701.7701,-383.0854C719.2108,-384.4195 775.7528,-388.7448 792.9964,-390.0638"/>
</g>
<!-- 27&#45;&#45;30 -->
<g id="edge60" class="edge">
<title>27&#45;&#45;30</title>
<path fill="none" stroke="#000000" d="M701.4929,-381.5672C718.589,-377.6438 775.5653,-364.5684 792.953,-360.5782"/>
</g>
<!-- 27&#45;&#45;33 -->
<g id="edge62" class="edge">
<title>27&#45;&#45;33</title>
<path fill="none" stroke="#000000" d="M701.1535,-380.3323C720.1423,-370.4995 792.923,-332.8122 811.9204,-322.975"/>
</g>
<!-- 32&#45;&#45;33 -->
<g id="edge72" class="edge">
<title>32&#45;&#45;33</title>
<path fill="none" stroke="#000000" d="M765.4914,-284.8626C775.8851,-292.1508 802.0908,-310.5266 812.308,-317.691"/>
</g>
<!-- 32&#45;&#45;36 -->
<g id="edge73" class="edge">
<title>32&#45;&#45;36</title>
<path fill="none" stroke="#000000" d="M756.9146,-278.7636C745.2467,-270.3481 712.7224,-246.89 700.936,-238.3891"/>
</g>
<!-- 37 -->
<g id="node38" class="node">
<title>37</title>
<g id="a_node38"><a xlink:title="#37: Siam&#10;#0: RandomAgent&#10;1 armies">
<ellipse fill="#cd5b45" stroke="#000000" stroke-width="0" cx="798.0353" cy="-219.7434" rx="5" ry="5"/>
</a>
</g>
</g>
<!-- 32&#45;&#45;37 -->
<g id="edge74" class="edge">
<title>32&#45;&#45;37</title>
<path fill="none" stroke="#000000" d="M763.8026,-277.354C770.6082,-265.9007 788.6274,-235.5759 795.4066,-224.1672"/>
</g>
<!-- 28&#45;&#45;29 -->
<g id="edge63" class="edge">
<title>28&#45;&#45;29</title>
<path fill="none" stroke="#000000" d="M803.4806,-390.4493C818.6264,-390.4493 861.1058,-390.4493 875.8828,-390.4493"/>
</g>
<!-- 28&#45;&#45;30 -->
<g id="edge64" class="edge">
<title>28&#45;&#45;30</title>
<path fill="none" stroke="#000000" d="M798.0353,-385.3241C798.0353,-379.5389 798.0353,-370.1873 798.0353,-364.4417"/>
</g>
<!-- 30&#45;&#45;33 -->
<g id="edge68" class="edge">
<title>30&#45;&#45;33</title>
<path fill="none" stroke="#000000" d="M800.2967,-354.6546C803.8363,-347.2084 810.647,-332.8812 814.198,-325.4112"/>
</g>
<!-- 33&#45;&#45;34 -->
<g id="edge75" class="edge">
<title>33&#45;&#45;34</title>
<path fill="none" stroke="#000000" d="M821.7833,-319.499C835.3946,-316.6357 871.433,-309.0545 884.9913,-306.2023"/>
</g>
<!-- 36&#45;&#45;37 -->
<g id="edge77" class="edge">
<title>36&#45;&#45;37</title>
<path fill="none" stroke="#000000" d="M701.7701,-234.4712C719.2108,-231.8029 775.7528,-223.1524 792.9964,-220.5143"/>
</g>
<!-- 38 -->
<g id="node39" class="node">
<title>38</title>
<g id="a_node39"><a xlink:title="#38: Indonesia&#10;#1: RandomAgent&#10;1 armies">
<ellipse fill="#698b22" stroke="#000000" stroke-width="0" cx="834.9206" cy="-173.1872" rx="5" ry="5"/>
</a>
</g>
</g>
<!-- 37&#45;&#45;38 -->
<g id="edge78" class="edge">
<title>37&#45;&#45;38</title>
<path fill="none" stroke="#000000" d="M801.1801,-215.774C808.1488,-206.9782 824.8225,-185.9329 831.7837,-177.1465"/>
</g>
<!-- 39 -->
<g id="node40" class="node">
<title>39</title>
<g id="a_node40"><a xlink:title="#39: Papua New Guinea&#10;#0: RandomAgent&#10;1 armies">
<ellipse fill="#cd5b45" stroke="#000000" stroke-width="0" cx="927.134" cy="-149.9091" rx="5" ry="5"/>
</a>
</g>
</g>
<!-- 38&#45;&#45;39 -->
<g id="edge79" class="edge">
<title>38&#45;&#45;39</title>
<path fill="none" stroke="#000000" d="M839.8784,-171.9357C855.8897,-167.8938 906.1056,-155.2175 922.1517,-151.1668"/>
</g>
<!-- 40 -->
<g id="node41" class="node">
<title>40</title>
<g id="a_node41"><a xlink:title="#40: Western Australia&#10;#2: RandomAgent&#10;1 armies">
<ellipse fill="#7d26cd" stroke="#000000" stroke-width="0" cx="853.3633" cy="-95.5936" rx="5" ry="5"/>
</a>
</g>
</g>
<!-- 38&#45;&#45;40 -->
<g id="edge80" class="edge">
<title>38&#45;&#45;40</title>
<path fill="none" stroke="#000000" d="M836.1307,-168.0961C839.4644,-154.0703 848.757,-114.9734 852.1246,-100.8052"/>
</g>
<!-- 39&#45;&#45;40 -->
<g id="edge81" class="edge">
<title>39&#45;&#45;40</title>
<path fill="none" stroke="#000000" d="M922.7403,-146.6741C909.5884,-136.9907 870.6412,-108.3149 857.6416,-98.7436"/>
</g>
<!-- 41 -->
<g id="node42" class="node">
<title>41</title>
<g id="a_node42"><a xlink:title="#41: Eastern Australia&#10;#0: RandomAgent&#10;1 armies">
<ellipse fill="#cd5b45" stroke="#000000" stroke-width="0" cx="917.9127" cy="-95.5936" rx="5" ry="5"/>
</a>
</g>
</g>
<!-- 39&#45;&#45;41 -->
<g id="edge82" class="edge">
<title>39&#45;&#45;41</title>
<path fill="none" stroke="#000000" d="M926.283,-144.8966C924.5352,-134.6018 920.5572,-111.1704 918.7885,-100.7524"/>
</g>
<!-- 40&#45;&#45;41 -->
<g id="edge83" class="edge">
<title>40&#45;&#45;41</title>
<path fill="none" stroke="#000000" d="M858.4284,-95.5936C870.4355,-95.5936 900.53,-95.5936 912.6918,-95.5936"/>
</g>
<!-- legend -->
<g id="node43" class="node">
<title>legend</title>
<text text-anchor="start" x="271.567" y="-15.3" font-family="Times,serif" font-size="14.00" fill="#000000">Players: </text>
<text text-anchor="start" x="334.567" y="-15.3" font-family="Times,serif" font-size="14.00" fill="#cd5b45">RandomAgent</text>
<text text-anchor="start" x="436.567" y="-15.3" font-family="Times,serif" font-size="14.00" fill="#000000">, </text>
<text text-anchor="start" x="446.567" y="-15.3" font-family="Times,serif" font-size="14.00" fill="#698b22">RandomAgent</text>
<text text-anchor="start" x="548.567" y="-15.3" font-family="Times,serif" font-size="14.00" fill="#000000">, </text>
<text text-anchor="start" x="558.567" y="-15.3" font-family="Times,serif" font-size="14.00" fill="#7d26cd">RandomAgent</text>
</g>
</g>
</svg>
